<svg width="216" height="75" viewBox="0 0 216 75" fill="none" xmlns="http://www.w3.org/2000/svg">
<path d="M56.2569 49.9812H32.3281V46.7989C32.3281 44.1183 34.4978 41.9453 37.1744 41.9453H61.1032V45.1276C61.1034 47.8081 58.9335 49.9812 56.2569 49.9812Z" fill="#0EABEB"/>
<path d="M42.7051 60.3713V36.4063C42.7051 33.7257 44.8748 31.5527 47.5514 31.5527H50.7289V55.5175C50.7289 58.1981 48.5592 60.3711 45.8826 60.3711L42.7051 60.3713Z" fill="#0EABEB"/>
<path d="M30.8309 57.9292C27.9923 56.3278 25.2817 54.4596 22.8069 52.2662C21.564 51.1754 20.4081 49.9771 19.3273 48.7029C18.2513 47.425 17.2606 46.0579 16.405 44.5958L15.7975 43.4786L15.2533 42.3467C14.9095 41.5656 14.5791 40.7297 14.3201 39.9258C13.7889 38.2941 13.4256 36.6 13.2524 34.8733C12.9278 31.4277 13.3916 27.8156 14.9018 24.5363L15.5154 23.3309L16.2282 22.1752L16.2731 22.103L16.3576 21.9875L16.4476 21.8643L16.6274 21.6178L16.9871 21.1247C17.2957 20.7644 17.6079 20.3908 17.9256 20.0479C19.1725 18.73 20.6149 17.6132 22.1735 16.7146C23.7314 15.8119 25.4143 15.1447 27.1498 14.6902C28.887 14.2404 30.6848 14.0051 32.4924 14.0246C32.9441 14.0318 33.3961 14.0645 33.848 14.0856L35.1303 14.2294C35.5906 14.3087 36.067 14.3803 36.5136 14.4741C36.9485 14.5796 37.3902 14.6652 37.8195 14.7905C39.5464 15.2625 41.2078 15.9408 42.7664 16.7921C45.8842 18.4933 48.629 20.8292 50.794 23.6318L47.6669 23.4026C48.8673 22.2691 50.1873 21.2762 51.5928 20.4333C52.9985 19.592 54.491 18.8957 56.0491 18.392C59.1552 17.3832 62.5038 16.983 65.784 17.5046C66.1952 17.5463 66.5987 17.6541 67.005 17.7324C67.4126 17.807 67.8128 17.9178 68.2107 18.0382L68.8083 18.2123L68.8829 18.2342L68.9203 18.2452L69.0307 18.2835L69.1609 18.3333L69.4216 18.4327L69.9429 18.6314L70.203 18.7322L70.4992 18.8697C70.8935 19.0584 71.3002 19.2441 71.6786 19.4438L72.7517 20.0723C73.4414 20.5285 74.1226 20.997 74.7475 21.5338C77.2828 23.6324 79.2366 26.4007 80.33 29.502C80.8781 31.0501 81.2091 32.6818 81.2795 34.332L81.2683 35.5704L81.2661 35.7248L81.2594 35.8433L81.2531 35.9129L81.227 36.1912L81.169 36.7497C81.0459 37.6076 80.8946 38.4035 80.6677 39.1748C80.2274 40.7264 79.5964 42.2027 78.805 43.565C78.0151 44.9281 77.1035 46.2043 76.0691 47.3598C73.9923 49.6684 71.5711 51.5667 69.0081 53.1525C66.4523 54.7542 63.7812 56.0921 61.0944 57.3872C63.5571 55.7023 66.0476 54.059 68.3588 52.228C70.6603 50.3964 72.8204 48.4021 74.5151 46.0917C75.3532 44.9328 76.1133 43.7287 76.7198 42.4608C77.3347 41.198 77.7821 39.8725 78.0571 38.5333C78.204 37.8618 78.2724 37.181 78.3227 36.5601L78.3392 36.004L78.3492 35.7248L78.3518 35.655L78.3532 35.6202C78.3555 35.5731 78.351 35.6646 78.351 35.6497L78.3502 35.6341L78.3441 35.5094L78.3009 34.5136C78.1708 33.1888 77.8331 31.8865 77.3208 30.6538C76.8062 29.4225 76.1294 28.2526 75.2992 27.2006C74.4628 26.1538 73.5043 25.2094 72.4552 24.3932C71.9354 23.9769 71.3717 23.6257 70.8092 23.2796L69.9377 22.8125L69.0973 22.4387L68.8859 22.3446L68.6222 22.2535L68.0957 22.0689L67.8325 21.9767L67.7008 21.9304L67.6843 21.9247C67.6103 21.8992 67.7667 21.9529 67.7452 21.9462L67.7154 21.9385L67.6556 21.9232L67.1781 21.8C66.8614 21.7124 66.5431 21.6314 66.216 21.5837C65.8904 21.5324 65.5714 21.4494 65.2402 21.4287C62.6198 21.0907 59.9056 21.461 57.3774 22.321C56.1077 22.7485 54.9024 23.3534 53.7572 24.0385C52.6154 24.732 51.5488 25.5441 50.5877 26.4592L48.9054 28.0616L47.4604 26.23C45.6247 23.9029 43.3373 21.9106 40.7514 20.4884C39.4587 19.7799 38.0996 19.2034 36.6983 18.7922C36.3495 18.6824 35.9922 18.6111 35.6397 18.5169C35.2926 18.4382 34.9651 18.3865 34.627 18.315L33.4896 18.1669C33.1303 18.1474 32.7718 18.1132 32.4115 18.1011C29.526 18.0104 26.583 18.6887 24.0182 20.0481C22.7346 20.7245 21.5468 21.5757 20.5179 22.5829L19.8189 23.3138L19.0987 24.2034L18.4814 25.0933L17.9368 26.036C17.2572 27.3239 16.768 28.7299 16.4676 30.1909C16.1641 31.6524 16.0588 33.1674 16.1036 34.6866C16.1437 36.2071 16.3535 37.7351 16.7215 39.2303C16.9083 39.9921 17.1264 40.6892 17.3822 41.4206L17.8156 42.5245L18.2977 43.5912C18.9686 45.0035 19.7641 46.3692 20.6698 47.6703C21.5709 48.9758 22.591 50.2051 23.6609 51.4C25.8159 53.779 28.2652 55.919 30.8309 57.9292Z" fill="#0EABEB"/>
<path d="M113.034 22.0292V43.0195H109.115V33.8453H99.2584V43.0195H95.3391V22.0292H99.2584V31.0582H109.115V22.0292H113.034ZM123.279 27.8937C124.382 27.8937 125.384 28.0728 126.284 28.4308C127.194 28.7889 127.968 29.2969 128.607 29.955C129.255 30.6131 129.753 31.4163 130.102 32.3647C130.45 33.3131 130.624 34.3728 130.624 35.5437C130.624 36.7244 130.45 37.7889 130.102 38.7373C129.753 39.6857 129.255 40.4937 128.607 41.1615C127.968 41.8292 127.194 42.3421 126.284 42.7002C125.384 43.0582 124.382 43.2373 123.279 43.2373C122.166 43.2373 121.155 43.0582 120.245 42.7002C119.336 42.3421 118.557 41.8292 117.908 41.1615C117.27 40.4937 116.771 39.6857 116.413 38.7373C116.065 37.7889 115.89 36.7244 115.89 35.5437C115.89 34.3728 116.065 33.3131 116.413 32.3647C116.771 31.4163 117.27 30.6131 117.908 29.955C118.557 29.2969 119.336 28.7889 120.245 28.4308C121.155 28.0728 122.166 27.8937 123.279 27.8937ZM123.279 40.4792C124.518 40.4792 125.432 40.0631 126.023 39.2308C126.623 38.3986 126.923 37.1792 126.923 35.5728C126.923 33.9663 126.623 32.7421 126.023 31.9002C125.432 31.0582 124.518 30.6373 123.279 30.6373C122.021 30.6373 121.087 31.0631 120.478 31.9147C119.878 32.7566 119.578 33.976 119.578 35.5728C119.578 37.1695 119.878 38.3889 120.478 39.2308C121.087 40.0631 122.021 40.4792 123.279 40.4792ZM142.447 31.0292C142.35 31.184 142.248 31.2953 142.142 31.3631C142.036 31.4211 141.9 31.4502 141.736 31.4502C141.561 31.4502 141.373 31.4018 141.169 31.305C140.976 31.2082 140.748 31.1018 140.487 30.9857C140.226 30.8599 139.926 30.7486 139.587 30.6518C139.258 30.555 138.866 30.5066 138.411 30.5066C137.705 30.5066 137.148 30.6566 136.742 30.9566C136.345 31.2566 136.147 31.6486 136.147 32.1324C136.147 32.4518 136.248 32.7228 136.452 32.9453C136.665 33.1582 136.94 33.3469 137.279 33.5115C137.627 33.676 138.019 33.826 138.455 33.9615C138.89 34.0873 139.331 34.2276 139.776 34.3824C140.231 34.5373 140.676 34.7163 141.111 34.9195C141.547 35.1131 141.934 35.3647 142.273 35.6744C142.621 35.9744 142.897 36.3373 143.1 36.7631C143.313 37.1889 143.419 37.7018 143.419 38.3018C143.419 39.0179 143.289 39.6808 143.027 40.2905C142.776 40.8905 142.398 41.4131 141.895 41.8582C141.392 42.2937 140.768 42.6373 140.023 42.8889C139.287 43.1308 138.436 43.2518 137.468 43.2518C136.955 43.2518 136.452 43.2034 135.958 43.1066C135.474 43.0195 135.005 42.8937 134.55 42.7292C134.105 42.5647 133.689 42.3711 133.302 42.1486C132.924 41.926 132.59 41.684 132.3 41.4228L133.127 40.0582C133.234 39.8937 133.36 39.7679 133.505 39.6808C133.65 39.5937 133.834 39.5502 134.057 39.5502C134.279 39.5502 134.487 39.6131 134.681 39.7389C134.884 39.8647 135.116 40.0002 135.377 40.1453C135.639 40.2905 135.944 40.426 136.292 40.5518C136.65 40.6776 137.1 40.7405 137.642 40.7405C138.068 40.7405 138.431 40.6921 138.731 40.5953C139.04 40.4889 139.292 40.3534 139.486 40.1889C139.689 40.0244 139.834 39.8357 139.921 39.6228C140.018 39.4002 140.066 39.1728 140.066 38.9405C140.066 38.5921 139.96 38.3066 139.747 38.084C139.544 37.8615 139.268 37.6679 138.919 37.5034C138.581 37.3389 138.189 37.1937 137.744 37.0679C137.308 36.9324 136.858 36.7873 136.394 36.6324C135.939 36.4776 135.489 36.2986 135.044 36.0953C134.608 35.8824 134.216 35.6163 133.868 35.297C133.529 34.9776 133.253 34.5857 133.04 34.1211C132.837 33.6566 132.736 33.0953 132.736 32.4373C132.736 31.8276 132.857 31.2469 133.098 30.6953C133.34 30.1437 133.694 29.6647 134.158 29.2582C134.632 28.8421 135.218 28.5131 135.915 28.2711C136.621 28.0195 137.434 27.8937 138.353 27.8937C139.379 27.8937 140.313 28.0631 141.155 28.4018C141.997 28.7405 142.698 29.1857 143.26 29.7373L142.447 31.0292ZM149.704 39.1582C150.11 39.6518 150.55 40.0002 151.025 40.2034C151.508 40.4066 152.031 40.5082 152.592 40.5082C153.134 40.5082 153.623 40.4066 154.058 40.2034C154.494 40.0002 154.862 39.6905 155.162 39.2744C155.471 38.8582 155.708 38.3357 155.873 37.7066C156.037 37.0679 156.12 36.3179 156.12 35.4566C156.12 34.5857 156.047 33.8502 155.902 33.2502C155.766 32.6405 155.568 32.1469 155.307 31.7695C155.045 31.3921 154.726 31.1163 154.349 30.9421C153.981 30.7679 153.56 30.6808 153.086 30.6808C152.341 30.6808 151.707 30.8405 151.184 31.1599C150.662 31.4695 150.168 31.9099 149.704 32.4808V39.1582ZM149.515 30.1582C150.125 29.4711 150.816 28.9147 151.591 28.4889C152.365 28.0631 153.275 27.8502 154.32 27.8502C155.133 27.8502 155.873 28.0195 156.541 28.3582C157.218 28.6969 157.799 29.1905 158.283 29.8389C158.776 30.4776 159.154 31.2711 159.415 32.2195C159.686 33.1582 159.821 34.2373 159.821 35.4566C159.821 36.5695 159.671 37.6002 159.371 38.5486C159.071 39.497 158.641 40.3195 158.079 41.0163C157.528 41.7131 156.855 42.2599 156.062 42.6566C155.278 43.0437 154.397 43.2373 153.42 43.2373C152.587 43.2373 151.876 43.1115 151.286 42.8599C150.695 42.5986 150.168 42.2405 149.704 41.7857V47.8824H146.118V28.126H148.31C148.775 28.126 149.079 28.3437 149.225 28.7792L149.515 30.1582ZM166.335 28.126V43.0195H162.735V28.126H166.335ZM166.828 23.7857C166.828 24.0953 166.766 24.3857 166.64 24.6566C166.514 24.9276 166.345 25.1647 166.132 25.3679C165.928 25.5711 165.687 25.7357 165.406 25.8615C165.125 25.9776 164.825 26.0357 164.506 26.0357C164.196 26.0357 163.901 25.9776 163.62 25.8615C163.349 25.7357 163.112 25.5711 162.909 25.3679C162.706 25.1647 162.541 24.9276 162.416 24.6566C162.299 24.3857 162.241 24.0953 162.241 23.7857C162.241 23.4663 162.299 23.1663 162.416 22.8857C162.541 22.605 162.706 22.3631 162.909 22.1599C163.112 21.9566 163.349 21.7969 163.62 21.6808C163.901 21.555 164.196 21.4921 164.506 21.4921C164.825 21.4921 165.125 21.555 165.406 21.6808C165.687 21.7969 165.928 21.9566 166.132 22.1599C166.345 22.3631 166.514 22.605 166.64 22.8857C166.766 23.1663 166.828 23.4663 166.828 23.7857ZM174.955 43.2518C173.658 43.2518 172.661 42.8889 171.964 42.1631C171.277 41.4276 170.934 40.4163 170.934 39.1292V30.8115H169.41C169.216 30.8115 169.052 30.7486 168.916 30.6228C168.781 30.4969 168.713 30.3082 168.713 30.0566V28.634L171.108 28.2421L171.863 24.1776C171.911 23.984 172.003 23.834 172.139 23.7276C172.274 23.6211 172.448 23.5679 172.661 23.5679H174.519V28.2566H178.497V30.8115H174.519V38.8824C174.519 39.347 174.631 39.7099 174.853 39.9711C175.085 40.2324 175.4 40.3631 175.797 40.3631C176.019 40.3631 176.203 40.3389 176.348 40.2905C176.503 40.2324 176.634 40.1744 176.74 40.1163C176.856 40.0582 176.958 40.005 177.045 39.9566C177.132 39.8986 177.219 39.8695 177.306 39.8695C177.413 39.8695 177.5 39.8986 177.568 39.9566C177.635 40.005 177.708 40.0824 177.785 40.1889L178.86 41.9308C178.337 42.3663 177.737 42.6953 177.06 42.9179C176.382 43.1405 175.681 43.2518 174.955 43.2518ZM188.66 36.6615C187.625 36.7099 186.754 36.8018 186.047 36.9373C185.341 37.0631 184.775 37.2276 184.349 37.4308C183.923 37.634 183.618 37.8711 183.434 38.1421C183.25 38.4131 183.158 38.7082 183.158 39.0276C183.158 39.6566 183.342 40.1066 183.71 40.3776C184.087 40.6486 184.576 40.784 185.176 40.784C185.912 40.784 186.546 40.6534 187.078 40.3921C187.62 40.1211 188.147 39.7147 188.66 39.1728V36.6615ZM180.444 30.2018C182.157 28.634 184.218 27.8502 186.628 27.8502C187.499 27.8502 188.278 27.9953 188.965 28.2857C189.652 28.5663 190.233 28.9631 190.707 29.476C191.181 29.9792 191.539 30.584 191.781 31.2905C192.033 31.9969 192.158 32.7711 192.158 33.6131V43.0195H190.533C190.194 43.0195 189.933 42.9711 189.749 42.8744C189.565 42.7679 189.42 42.5599 189.313 42.2502L188.994 41.176C188.617 41.5147 188.249 41.8147 187.891 42.076C187.533 42.3276 187.16 42.5405 186.773 42.7147C186.386 42.8889 185.97 43.0195 185.525 43.1066C185.089 43.2034 184.605 43.2518 184.073 43.2518C183.444 43.2518 182.863 43.1695 182.331 43.005C181.799 42.8308 181.339 42.5744 180.952 42.2357C180.565 41.897 180.265 41.476 180.052 40.9728C179.839 40.4695 179.733 39.884 179.733 39.2163C179.733 38.8389 179.796 38.4663 179.921 38.0986C180.047 37.7211 180.25 37.3631 180.531 37.0244C180.821 36.6857 181.194 36.3663 181.649 36.0663C182.104 35.7663 182.66 35.505 183.318 35.2824C183.986 35.0599 184.76 34.8808 185.641 34.7453C186.521 34.6002 187.528 34.5131 188.66 34.484V33.6131C188.66 32.6163 188.447 31.8808 188.021 31.4066C187.596 30.9228 186.981 30.6808 186.178 30.6808C185.597 30.6808 185.113 30.7486 184.726 30.884C184.349 31.0195 184.015 31.1744 183.725 31.3486C183.434 31.5131 183.168 31.6631 182.926 31.7986C182.694 31.934 182.433 32.0018 182.142 32.0018C181.891 32.0018 181.678 31.9389 181.504 31.8131C181.329 31.6776 181.189 31.5228 181.083 31.3486L180.444 30.2018ZM199.164 21.4486V43.0195H195.579V21.4486H199.164Z" fill="#0EABEB"/>
<path d="M95.2171 59.1008C94.875 59.1008 94.6074 59.006 94.4144 58.8163C94.2247 58.6266 94.1299 58.3336 94.1299 57.9374V54.4825H93.4033C93.3661 54.4825 93.3356 54.4724 93.3119 54.452C93.2882 54.4317 93.2763 54.4029 93.2763 54.3657V54.1777L94.14 54.1167L94.262 52.308C94.2687 52.2775 94.2823 52.2504 94.3026 52.2267C94.3229 52.203 94.3517 52.1911 94.389 52.1911H94.6176V54.1218H96.2129V54.4825H94.6176V57.912C94.6176 58.0508 94.6345 58.1711 94.6684 58.2727C94.7057 58.3709 94.7548 58.4522 94.8157 58.5165C94.8801 58.5809 94.9546 58.6283 95.0393 58.6588C95.124 58.6893 95.2154 58.7045 95.3136 58.7045C95.4356 58.7045 95.5406 58.6876 95.6286 58.6537C95.7167 58.6165 95.7929 58.5775 95.8573 58.5369C95.9216 58.4928 95.9741 58.4539 96.0148 58.42C96.0554 58.3828 96.0876 58.3641 96.1113 58.3641C96.1384 58.3641 96.1655 58.3811 96.1926 58.4149L96.3247 58.6283C96.196 58.7706 96.0317 58.8857 95.8319 58.9738C95.6354 59.0585 95.4305 59.1008 95.2171 59.1008ZM100.148 56.5757C99.6672 56.5927 99.2522 56.6316 98.9034 56.6926C98.5579 56.7502 98.2717 56.8298 98.0447 56.9314C97.8212 57.033 97.6552 57.1549 97.5468 57.2972C97.4384 57.4361 97.3842 57.5953 97.3842 57.7748C97.3842 57.9441 97.4113 58.0915 97.4655 58.2168C97.5231 58.3387 97.5976 58.4403 97.6891 58.5216C97.7839 58.5995 97.8923 58.6571 98.0142 58.6944C98.1362 58.7316 98.2632 58.7503 98.3953 58.7503C98.5917 58.7503 98.7713 58.7299 98.9338 58.6893C99.0998 58.6453 99.2522 58.586 99.3911 58.5115C99.5334 58.4336 99.6655 58.3421 99.7874 58.2371C99.9093 58.1321 100.03 58.0186 100.148 57.8967V56.5757ZM97.1759 54.6807C97.4401 54.4165 97.7179 54.2166 98.0092 54.0811C98.3005 53.9457 98.6307 53.8779 98.9999 53.8779C99.2709 53.8779 99.508 53.922 99.7112 54.01C99.9144 54.0947 100.082 54.2183 100.214 54.3809C100.35 54.5401 100.451 54.7349 100.519 54.9652C100.587 55.1921 100.621 55.4461 100.621 55.7273V59.0195H100.428C100.326 59.0195 100.263 58.9721 100.24 58.8773L100.168 58.227C100.03 58.3624 99.8907 58.4844 99.7518 58.5928C99.6163 58.7011 99.4741 58.7926 99.3251 58.8671C99.176 58.9416 99.0151 58.9992 98.8424 59.0399C98.6697 59.0805 98.48 59.1008 98.2734 59.1008C98.1006 59.1008 97.933 59.0754 97.7704 59.0246C97.6078 58.9738 97.4622 58.8959 97.3334 58.7909C97.2081 58.6859 97.1065 58.5521 97.0286 58.3895C96.9541 58.2236 96.9168 58.0254 96.9168 57.7951C96.9168 57.5817 96.9778 57.3836 97.0997 57.2007C97.2217 57.0178 97.413 56.8586 97.6738 56.7231C97.9347 56.5876 98.2683 56.4792 98.6747 56.3979C99.0846 56.3166 99.5757 56.2692 100.148 56.2557V55.7273C100.148 55.2599 100.047 54.9008 99.8433 54.6502C99.6434 54.3961 99.3454 54.2691 98.9491 54.2691C98.7052 54.2691 98.4969 54.303 98.3242 54.3707C98.1548 54.4385 98.0109 54.513 97.8923 54.5943C97.7738 54.6756 97.6772 54.7501 97.6027 54.8178C97.5282 54.8856 97.4655 54.9195 97.4147 54.9195C97.3775 54.9195 97.347 54.911 97.3233 54.894C97.2996 54.8771 97.2792 54.8551 97.2623 54.828L97.1759 54.6807ZM103.891 56.784C104.108 56.784 104.301 56.7536 104.47 56.6926C104.64 56.6282 104.782 56.5402 104.897 56.4284C105.012 56.3166 105.1 56.1828 105.161 56.027C105.222 55.8712 105.253 55.6985 105.253 55.5088C105.253 55.3191 105.221 55.1464 105.156 54.9906C105.095 54.8314 105.006 54.6959 104.887 54.5841C104.772 54.4724 104.63 54.386 104.46 54.325C104.294 54.264 104.105 54.2336 103.891 54.2336C103.678 54.2336 103.487 54.264 103.317 54.325C103.151 54.386 103.009 54.4724 102.89 54.5841C102.775 54.6959 102.687 54.8314 102.626 54.9906C102.565 55.1464 102.535 55.3191 102.535 55.5088C102.535 55.6985 102.565 55.8712 102.626 56.027C102.687 56.1828 102.775 56.3166 102.89 56.4284C103.009 56.5402 103.151 56.6282 103.317 56.6926C103.487 56.7536 103.678 56.784 103.891 56.784ZM105.781 59.3599C105.781 59.2007 105.739 59.0737 105.654 58.9789C105.573 58.8807 105.463 58.8045 105.324 58.7503C105.185 58.6961 105.024 58.6588 104.841 58.6385C104.662 58.6148 104.472 58.5978 104.272 58.5877C104.076 58.5775 103.878 58.5674 103.678 58.5572C103.478 58.547 103.29 58.5267 103.114 58.4962C102.985 58.547 102.867 58.6063 102.758 58.674C102.65 58.7384 102.557 58.8129 102.479 58.8976C102.401 58.9823 102.34 59.0737 102.296 59.172C102.252 59.2736 102.23 59.382 102.23 59.4971C102.23 59.6461 102.267 59.7833 102.342 59.9086C102.42 60.0374 102.531 60.1474 102.677 60.2389C102.826 60.3337 103.007 60.4082 103.221 60.4624C103.434 60.5166 103.68 60.5437 103.957 60.5437C104.215 60.5437 104.454 60.5149 104.674 60.4574C104.897 60.3998 105.09 60.3185 105.253 60.2135C105.419 60.1085 105.548 59.9832 105.639 59.8375C105.734 59.6919 105.781 59.5327 105.781 59.3599ZM106.31 54.1878V54.3555C106.31 54.43 106.262 54.4757 106.167 54.4927L105.395 54.5486C105.49 54.6773 105.563 54.8212 105.614 54.9804C105.664 55.1396 105.69 55.3124 105.69 55.4986C105.69 55.7425 105.646 55.9644 105.558 56.1642C105.473 56.3607 105.351 56.53 105.192 56.6723C105.036 56.8111 104.846 56.9195 104.623 56.9974C104.403 57.0753 104.159 57.1143 103.891 57.1143C103.603 57.1143 103.341 57.0703 103.104 56.9822C102.962 57.0635 102.848 57.16 102.763 57.2718C102.682 57.3802 102.641 57.4886 102.641 57.597C102.641 57.7426 102.692 57.8544 102.794 57.9323C102.899 58.0102 103.034 58.0678 103.2 58.105C103.37 58.1389 103.561 58.1609 103.774 58.1711C103.991 58.1812 104.211 58.1931 104.435 58.2066C104.658 58.2168 104.877 58.2371 105.09 58.2676C105.307 58.2981 105.498 58.3523 105.664 58.4302C105.834 58.5047 105.969 58.6114 106.071 58.7503C106.176 58.8857 106.228 59.067 106.228 59.2939C106.228 59.5039 106.176 59.7054 106.071 59.8985C105.966 60.0915 105.813 60.2626 105.614 60.4116C105.417 60.5607 105.178 60.6792 104.897 60.7673C104.616 60.8587 104.301 60.9045 103.952 60.9045C103.597 60.9045 103.285 60.8672 103.017 60.7927C102.75 60.7215 102.525 60.6233 102.342 60.498C102.162 60.3761 102.027 60.2338 101.935 60.0712C101.844 59.9086 101.798 59.7359 101.798 59.553C101.798 59.2854 101.886 59.0568 102.062 58.8671C102.238 58.674 102.479 58.5233 102.784 58.4149C102.614 58.3574 102.477 58.2744 102.372 58.166C102.271 58.0542 102.22 57.9035 102.22 57.7138C102.22 57.6427 102.233 57.5682 102.26 57.4903C102.287 57.4124 102.328 57.3361 102.382 57.2616C102.437 57.1837 102.503 57.1109 102.58 57.0432C102.658 56.9754 102.746 56.9145 102.845 56.8603C102.604 56.7214 102.416 56.5368 102.281 56.3065C102.149 56.0761 102.083 55.8069 102.083 55.4986C102.083 55.2548 102.125 55.0346 102.21 54.8382C102.298 54.6383 102.421 54.4673 102.58 54.325C102.74 54.1828 102.929 54.0727 103.15 53.9948C103.373 53.9169 103.62 53.8779 103.891 53.8779C104.115 53.8779 104.32 53.905 104.506 53.9592C104.696 54.0134 104.865 54.0896 105.014 54.1878H106.31ZM107.963 51.6272V59.0195H107.476V51.6272H107.963ZM110.211 53.9643V59.0195H109.728V53.9643H110.211ZM110.419 52.2216C110.419 52.2826 110.406 52.3402 110.379 52.3944C110.355 52.4452 110.323 52.4909 110.282 52.5315C110.242 52.5722 110.194 52.6044 110.14 52.6281C110.086 52.6518 110.028 52.6636 109.967 52.6636C109.906 52.6636 109.849 52.6518 109.794 52.6281C109.74 52.6044 109.693 52.5722 109.652 52.5315C109.612 52.4909 109.579 52.4452 109.556 52.3944C109.532 52.3402 109.52 52.2826 109.52 52.2216C109.52 52.1607 109.532 52.1031 109.556 52.0489C109.579 51.9913 109.612 51.9422 109.652 51.9015C109.693 51.8609 109.74 51.8287 109.794 51.805C109.849 51.7813 109.906 51.7695 109.967 51.7695C110.028 51.7695 110.086 51.7813 110.14 51.805C110.194 51.8287 110.242 51.8609 110.282 51.9015C110.323 51.9422 110.355 51.9913 110.379 52.0489C110.406 52.1031 110.419 52.1607 110.419 52.2216ZM112.397 54.8483C112.631 54.557 112.9 54.3233 113.205 54.1472C113.513 53.9711 113.855 53.883 114.231 53.883C114.509 53.883 114.753 53.927 114.963 54.0151C115.176 54.1032 115.353 54.2302 115.491 54.3961C115.63 54.5621 115.735 54.762 115.806 54.9957C115.878 55.2294 115.913 55.4936 115.913 55.7882V59.0195H115.425V55.7882C115.425 55.314 115.317 54.9432 115.1 54.6756C114.883 54.4046 114.553 54.2691 114.109 54.2691C113.781 54.2691 113.473 54.3538 113.185 54.5232C112.9 54.6891 112.646 54.9211 112.423 55.2192V59.0195H111.935V53.9643H112.204C112.289 53.9643 112.338 54.0066 112.352 54.0913L112.397 54.8483ZM121.068 55.9813C121.068 55.7103 121.029 55.4682 120.951 55.2548C120.877 55.038 120.77 54.8551 120.631 54.7061C120.492 54.557 120.326 54.4436 120.133 54.3657C119.943 54.2844 119.733 54.2437 119.503 54.2437C119.242 54.2437 119.009 54.2844 118.802 54.3657C118.595 54.447 118.416 54.5638 118.263 54.7162C118.114 54.8686 117.994 55.0515 117.903 55.2649C117.811 55.4783 117.75 55.7171 117.72 55.9813H121.068ZM117.694 56.2912V56.3878C117.694 56.7671 117.738 57.1007 117.827 57.3886C117.915 57.6765 118.04 57.9187 118.203 58.1152C118.365 58.3082 118.562 58.4539 118.792 58.5521C119.022 58.6503 119.28 58.6995 119.564 58.6995C119.818 58.6995 120.038 58.6724 120.225 58.6182C120.411 58.5606 120.567 58.4979 120.692 58.4302C120.821 58.359 120.922 58.2964 120.997 58.2422C121.071 58.1846 121.126 58.1558 121.159 58.1558C121.203 58.1558 121.237 58.1728 121.261 58.2066L121.393 58.3692C121.312 58.4708 121.203 58.5657 121.068 58.6537C120.936 58.7418 120.787 58.818 120.621 58.8824C120.458 58.9433 120.282 58.9924 120.093 59.0297C119.906 59.067 119.718 59.0856 119.529 59.0856C119.183 59.0856 118.868 59.0263 118.584 58.9078C118.299 58.7858 118.055 58.6097 117.852 58.3794C117.649 58.149 117.491 57.8679 117.379 57.536C117.271 57.2007 117.217 56.8179 117.217 56.3878C117.217 56.0253 117.268 55.6917 117.369 55.3869C117.474 55.0786 117.623 54.8145 117.816 54.5943C118.013 54.3707 118.252 54.1963 118.533 54.071C118.817 53.9457 119.139 53.883 119.498 53.883C119.783 53.883 120.047 53.9321 120.291 54.0303C120.535 54.1286 120.746 54.2725 120.926 54.4622C121.105 54.6485 121.246 54.8788 121.347 55.1532C121.452 55.4275 121.505 55.7425 121.505 56.0982C121.505 56.1727 121.495 56.2235 121.474 56.2506C121.454 56.2777 121.42 56.2912 121.373 56.2912H117.694ZM126.067 54.8178C126.301 54.5333 126.567 54.3064 126.865 54.137C127.166 53.9677 127.503 53.883 127.876 53.883C128.153 53.883 128.397 53.927 128.607 54.0151C128.821 54.1032 128.997 54.2302 129.136 54.3961C129.275 54.5621 129.38 54.762 129.451 54.9957C129.522 55.2294 129.557 55.4936 129.557 55.7882V59.0195H129.07V55.7882C129.07 55.314 128.961 54.9432 128.745 54.6756C128.528 54.4046 128.198 54.2691 127.754 54.2691C127.425 54.2691 127.117 54.3538 126.829 54.5232C126.545 54.6891 126.291 54.9211 126.067 55.2192V59.0195H125.579V51.6272H126.067V54.8178ZM134.712 55.9813C134.712 55.7103 134.673 55.4682 134.595 55.2548C134.521 55.038 134.414 54.8551 134.275 54.7061C134.136 54.557 133.971 54.4436 133.777 54.3657C133.588 54.2844 133.378 54.2437 133.147 54.2437C132.887 54.2437 132.653 54.2844 132.446 54.3657C132.24 54.447 132.06 54.5638 131.908 54.7162C131.759 54.8686 131.639 55.0515 131.547 55.2649C131.456 55.4783 131.395 55.7171 131.364 55.9813H134.712ZM131.339 56.2912V56.3878C131.339 56.7671 131.383 57.1007 131.471 57.3886C131.559 57.6765 131.684 57.9187 131.847 58.1152C132.009 58.3082 132.206 58.4539 132.436 58.5521C132.666 58.6503 132.924 58.6995 133.208 58.6995C133.462 58.6995 133.683 58.6724 133.869 58.6182C134.055 58.5606 134.211 58.4979 134.336 58.4302C134.465 58.359 134.567 58.2964 134.641 58.2422C134.716 58.1846 134.77 58.1558 134.804 58.1558C134.848 58.1558 134.882 58.1728 134.905 58.2066L135.037 58.3692C134.956 58.4708 134.848 58.5657 134.712 58.6537C134.58 58.7418 134.431 58.818 134.265 58.8824C134.103 58.9433 133.926 58.9924 133.737 59.0297C133.551 59.067 133.363 59.0856 133.173 59.0856C132.827 59.0856 132.512 59.0263 132.228 58.9078C131.943 58.7858 131.699 58.6097 131.496 58.3794C131.293 58.149 131.136 57.8679 131.024 57.536C130.915 57.2007 130.861 56.8179 130.861 56.3878C130.861 56.0253 130.912 55.6917 131.014 55.3869C131.119 55.0786 131.268 54.8145 131.461 54.5943C131.657 54.3707 131.896 54.1963 132.177 54.071C132.462 53.9457 132.783 53.883 133.142 53.883C133.427 53.883 133.691 53.9321 133.935 54.0303C134.179 54.1286 134.391 54.2725 134.57 54.4622C134.75 54.6485 134.89 54.8788 134.992 55.1532C135.097 55.4275 135.149 55.7425 135.149 56.0982C135.149 56.1727 135.139 56.2235 135.119 56.2506C135.098 56.2777 135.065 56.2912 135.017 56.2912H131.339ZM136.927 55.1836C137.005 54.977 137.093 54.7941 137.191 54.6349C137.293 54.4724 137.408 54.3352 137.537 54.2234C137.669 54.1116 137.815 54.027 137.974 53.9694C138.136 53.9084 138.316 53.8779 138.512 53.8779C138.617 53.8779 138.721 53.8881 138.822 53.9084C138.924 53.9253 139.014 53.9575 139.092 54.0049L139.051 54.3403C139.034 54.3945 139.002 54.4215 138.954 54.4215C138.914 54.4215 138.851 54.4097 138.766 54.386C138.685 54.3623 138.577 54.3504 138.441 54.3504C138.245 54.3504 138.07 54.3809 137.918 54.4419C137.769 54.4995 137.634 54.5875 137.512 54.7061C137.393 54.8246 137.288 54.972 137.197 55.1481C137.109 55.3208 137.027 55.5207 136.953 55.7476V59.0195H136.465V53.9643H136.724C136.782 53.9643 136.822 53.9761 136.846 53.9999C136.87 54.0236 136.885 54.0642 136.892 54.1218L136.927 55.1836ZM143.316 55.9813C143.316 55.7103 143.277 55.4682 143.199 55.2548C143.124 55.038 143.018 54.8551 142.879 54.7061C142.74 54.557 142.574 54.4436 142.381 54.3657C142.191 54.2844 141.981 54.2437 141.751 54.2437C141.49 54.2437 141.256 54.2844 141.05 54.3657C140.843 54.447 140.664 54.5638 140.511 54.7162C140.362 54.8686 140.242 55.0515 140.15 55.2649C140.059 55.4783 139.998 55.7171 139.968 55.9813H143.316ZM139.942 56.2912V56.3878C139.942 56.7671 139.986 57.1007 140.074 57.3886C140.162 57.6765 140.288 57.9187 140.45 58.1152C140.613 58.3082 140.809 58.4539 141.04 58.5521C141.27 58.6503 141.527 58.6995 141.812 58.6995C142.066 58.6995 142.286 58.6724 142.472 58.6182C142.659 58.5606 142.814 58.4979 142.94 58.4302C143.068 58.359 143.17 58.2964 143.245 58.2422C143.319 58.1846 143.373 58.1558 143.407 58.1558C143.451 58.1558 143.485 58.1728 143.509 58.2066L143.641 58.3692C143.56 58.4708 143.451 58.5657 143.316 58.6537C143.184 58.7418 143.035 58.818 142.869 58.8824C142.706 58.9433 142.53 58.9924 142.34 59.0297C142.154 59.067 141.966 59.0856 141.776 59.0856C141.431 59.0856 141.116 59.0263 140.831 58.9078C140.547 58.7858 140.303 58.6097 140.1 58.3794C139.896 58.149 139.739 57.8679 139.627 57.536C139.519 57.2007 139.465 56.8179 139.465 56.3878C139.465 56.0253 139.515 55.6917 139.617 55.3869C139.722 55.0786 139.871 54.8145 140.064 54.5943C140.261 54.3707 140.499 54.1963 140.78 54.071C141.065 53.9457 141.387 53.883 141.746 53.883C142.03 53.883 142.294 53.9321 142.538 54.0303C142.782 54.1286 142.994 54.2725 143.173 54.4622C143.353 54.6485 143.493 54.8788 143.595 55.1532C143.7 55.4275 143.753 55.7425 143.753 56.0982C143.753 56.1727 143.742 56.2235 143.722 56.2506C143.702 56.2777 143.668 56.2912 143.621 56.2912H139.942Z" fill="#0EABEB"/>
</svg>
