<svg width="833" height="585" viewBox="0 0 833 585" fill="none" xmlns="http://www.w3.org/2000/svg">
<g filter="url(#filter0_d_812_84328)">
<circle cx="115" cy="290" r="35" fill="white"/>
</g>
<path d="M124.535 291.481C121.287 291.481 118.645 294.113 118.645 297.349V301.419C115.538 302.403 116.195 307.026 119.504 307.059C122.815 307.021 123.475 302.412 120.366 301.419V297.349C120.366 295.057 122.237 293.193 124.534 293.193C126.833 293.193 128.703 295.057 128.703 297.349V303.511C128.223 315.135 111.597 315.148 111.111 303.511V296.669C111.573 296.561 111.983 296.301 112.277 295.931C112.57 295.561 112.729 295.104 112.728 294.633V293.837C112.728 293.289 113.055 292.81 113.537 292.648C116.792 291.518 119.255 288.728 119.952 285.365L120.951 280.598C121.067 280.04 121 279.459 120.758 278.943C120.516 278.426 120.112 278.001 119.608 277.731L120.317 272.38C120.822 269.146 118.054 265.99 114.762 266.065H112.838C111.703 266.093 111.706 267.753 112.838 267.777H114.762C117.043 267.726 118.961 269.914 118.611 272.155L117.908 277.448C116.799 277.63 115.905 278.535 115.698 279.698L115.061 283.421C113.896 289.872 106.692 289.865 105.512 283.421L104.883 279.707C104.685 278.545 103.81 277.647 102.709 277.448L102.007 272.155C101.935 271.608 101.981 271.051 102.142 270.523C102.303 269.995 102.576 269.507 102.942 269.091C103.305 268.679 103.753 268.348 104.256 268.121C104.759 267.895 105.304 267.777 105.856 267.777H107.779C108.911 267.765 108.909 266.08 107.779 266.065H105.856C102.564 265.993 99.7936 269.144 100.301 272.379L101.008 277.714C99.9692 278.228 99.3828 279.472 99.6308 280.597L100.63 285.364C101.336 288.727 103.79 291.517 107.045 292.647C107.527 292.809 107.854 293.289 107.854 293.836V294.632C107.854 295.591 108.501 296.398 109.389 296.652V303.511C109.961 317.403 129.845 317.42 130.425 303.511V297.349C130.425 294.113 127.782 291.481 124.535 291.481Z" fill="url(#paint0_linear_812_84328)"/>
<g filter="url(#filter1_d_812_84328)">
<circle cx="716" cy="158" r="37" fill="white"/>
</g>
<path d="M737.16 168.075H707.477C706.649 168.075 705.971 168.752 705.971 169.58V170.1C705.971 170.928 706.649 171.605 707.477 171.605H737.168C737.996 171.605 738.673 170.928 738.673 170.1V169.58C738.666 168.752 737.996 168.075 737.16 168.075ZM736.618 181.113H693.03C692.616 181.113 692.277 181.452 692.277 181.866C692.277 182.28 692.616 182.619 693.03 182.619H736.618C737.032 182.619 737.371 182.28 737.371 181.866C737.371 181.452 737.032 181.113 736.618 181.113ZM698.119 176.183C697.284 176.183 696.606 176.86 696.606 177.696V179.608H708.026V177.696C708.026 176.86 707.349 176.183 706.513 176.183H698.119Z" fill="url(#paint1_linear_812_84328)"/>
<path d="M710.759 166.569C712.538 166.569 713.981 165.127 713.981 163.347C713.981 161.568 712.538 160.125 710.759 160.125C708.979 160.125 707.537 161.568 707.537 163.347C707.537 165.127 708.979 166.569 710.759 166.569Z" fill="url(#paint2_linear_812_84328)"/>
<path d="M723.948 144.384C724.099 144.158 724.362 144.037 724.641 144.06C724.912 144.09 725.153 144.263 725.258 144.519L726.387 147.177L727.133 145.197C727.231 144.933 727.479 144.745 727.758 144.715C728.044 144.685 728.315 144.82 728.473 145.061L729.497 146.657L729.624 146.514C729.694 146.433 729.781 146.368 729.879 146.324C729.976 146.28 730.082 146.257 730.189 146.258H732.613V143.503H720.847V146.221H722.706L723.948 144.384Z" fill="url(#paint3_linear_812_84328)"/>
<path d="M732.613 147.756H730.528L729.963 148.396C729.887 148.485 729.79 148.554 729.681 148.599C729.573 148.643 729.455 148.661 729.338 148.652C729.221 148.644 729.108 148.608 729.007 148.548C728.906 148.488 728.821 148.405 728.759 148.306L728.006 147.131L727.125 149.465C727.02 149.751 726.741 149.947 726.432 149.954H726.417C726.116 149.954 725.845 149.774 725.725 149.495L724.407 146.378L723.715 147.395C723.572 147.598 723.338 147.726 723.09 147.726H720.832V150.436H732.598V147.756H732.613Z" fill="url(#paint4_linear_812_84328)"/>
<path d="M718.588 154.208H734.879C735.714 154.208 736.392 153.53 736.392 152.695V141.229C736.392 140.394 735.714 139.716 734.879 139.716H733.719V135.192C733.719 134.778 733.381 134.439 732.967 134.439C732.553 134.439 732.214 134.778 732.214 135.192V139.724H721.253V135.192C721.253 134.778 720.914 134.439 720.5 134.439C720.086 134.439 719.747 134.778 719.747 135.192V139.724H718.588C717.752 139.724 717.075 140.401 717.075 141.237V152.702C717.075 153.53 717.752 154.208 718.588 154.208ZM719.341 142.743C719.341 142.328 719.679 141.99 720.093 141.99H733.366C733.78 141.99 734.118 142.328 734.118 142.743V151.182C734.118 151.596 733.78 151.934 733.366 151.934H720.093C719.679 151.934 719.341 151.596 719.341 151.182V142.743ZM696.869 174.963C697.246 174.775 697.675 174.677 698.126 174.677H700.942C699.022 172.05 697.803 167.924 697.803 163.189C697.803 157.415 699.617 152.544 702.304 150.195H699.685C696.011 150.195 693.03 156.015 693.03 163.189C693.03 168.398 694.603 172.893 696.869 174.963Z" fill="url(#paint5_linear_812_84328)"/>
<path d="M699.572 166.772H702.583C702.342 165.673 702.207 164.461 702.207 163.189C702.207 158.627 703.931 154.772 705.971 154.772C707.319 154.772 708.523 156.444 709.186 158.89C709.675 158.71 710.209 158.612 710.759 158.612C711.278 158.612 711.775 158.695 712.242 158.853C711.331 153.809 708.869 150.195 705.971 150.195C702.29 150.195 699.309 156.015 699.309 163.189C699.309 164.431 699.406 165.636 699.572 166.772ZM710.255 173.111H708.485C704.729 173.299 703.547 169.844 702.997 168.278H699.843C700.438 171.026 701.514 173.292 702.854 174.677H706.521C707.213 174.677 707.853 174.91 708.365 175.309C709.058 174.782 709.697 174.037 710.255 173.111ZM723.474 173.111L719.077 179.608H726.342L730.731 173.111H723.474ZM735.587 166.569C735.587 164.612 734.194 162.971 732.35 162.594L729.933 162.12L726.756 161.344C724.039 160.682 721.208 160.69 718.49 161.36L715.328 162.142C715.426 162.526 715.487 162.925 715.487 163.339C715.487 164.589 714.997 165.718 714.207 166.561H735.587V166.569Z" fill="url(#paint6_linear_812_84328)"/>
<path opacity="0.2" d="M646.18 181.329C643.874 181.401 642.067 183.326 642.14 185.632C642.213 187.939 644.137 189.745 646.444 189.673C648.75 189.6 650.557 187.676 650.484 185.369C650.411 183.063 648.487 181.256 646.18 181.329ZM671.132 180.542C668.825 180.615 667.019 182.539 667.091 184.846C667.164 187.152 669.088 188.959 671.395 188.886C673.701 188.813 675.508 186.889 675.435 184.583C675.362 182.276 673.438 180.47 671.132 180.542ZM696.083 179.756C693.776 179.828 691.97 181.753 692.042 184.059C692.115 186.366 694.039 188.172 696.346 188.1C698.653 188.027 700.459 186.103 700.386 183.796C700.313 181.49 698.389 179.683 696.083 179.756ZM721.034 178.969C718.727 179.042 716.921 180.966 716.994 183.273C717.066 185.579 718.991 187.386 721.297 187.313C723.604 187.24 725.41 185.316 725.337 183.01C725.255 180.713 723.331 178.907 721.034 178.969ZM646.967 206.28C644.661 206.353 642.854 208.277 642.927 210.583C643 212.89 644.924 214.696 647.231 214.624C649.537 214.551 651.344 212.627 651.271 210.32C651.198 208.014 649.274 206.207 646.967 206.28ZM671.919 205.493C669.612 205.566 667.806 207.49 667.878 209.797C667.951 212.103 669.875 213.91 672.182 213.837C674.488 213.764 676.295 211.84 676.222 209.534C676.149 207.227 674.225 205.421 671.919 205.493ZM696.87 204.707C694.563 204.78 692.757 206.704 692.83 209.01C692.902 211.317 694.826 213.123 697.133 213.051C699.44 212.978 701.246 211.054 701.173 208.747C701.101 206.441 699.176 204.634 696.87 204.707ZM721.821 203.92C719.514 203.993 717.708 205.917 717.781 208.224C717.853 210.53 719.778 212.337 722.084 212.264C724.391 212.191 726.197 210.267 726.124 207.961C726.052 205.654 724.128 203.848 721.821 203.92ZM622.803 232.018C620.497 232.09 618.69 234.014 618.763 236.321C618.836 238.627 620.76 240.434 623.067 240.361C625.373 240.289 627.18 238.364 627.107 236.058C627.034 233.751 625.11 231.945 622.803 232.018ZM647.755 231.231C645.448 231.304 643.642 233.228 643.714 235.534C643.787 237.841 645.711 239.648 648.018 239.575C650.324 239.502 652.131 237.578 652.058 235.271C651.985 232.965 650.061 231.158 647.755 231.231ZM672.706 230.445C670.399 230.517 668.593 232.441 668.665 234.748C668.738 237.054 670.662 238.861 672.969 238.788C675.276 238.716 677.082 236.791 677.009 234.485C676.936 232.178 675.012 230.372 672.706 230.445ZM697.657 229.658C695.35 229.731 693.544 231.655 693.617 233.961C693.689 236.268 695.614 238.075 697.92 238.002C700.227 237.929 702.033 236.005 701.96 233.698C701.888 231.392 699.963 229.585 697.657 229.658ZM722.608 228.872C720.301 228.944 718.495 230.868 718.568 233.175C718.641 235.482 720.565 237.288 722.871 237.215C725.178 237.143 726.984 235.218 726.912 232.912C726.839 230.605 724.904 228.789 722.608 228.872ZM623.591 256.969C621.284 257.041 619.477 258.965 619.55 261.272C619.623 263.579 621.547 265.385 623.854 265.312C626.16 265.24 627.967 263.316 627.894 261.009C627.821 258.702 625.897 256.896 623.591 256.969ZM648.542 256.182C646.235 256.255 644.429 258.179 644.501 260.486C644.574 262.792 646.498 264.599 648.805 264.526C651.111 264.453 652.918 262.529 652.845 260.223C652.772 257.916 650.848 256.109 648.542 256.182ZM673.493 255.396C671.186 255.468 669.38 257.392 669.453 259.699C669.525 262.006 671.449 263.812 673.756 263.739C676.063 263.667 677.869 261.743 677.796 259.436C677.724 257.129 675.799 255.323 673.493 255.396ZM698.444 254.609C696.137 254.682 694.331 256.606 694.404 258.913C694.476 261.219 696.401 263.026 698.707 262.953C701.014 262.88 702.82 260.956 702.747 258.65C702.675 256.343 700.74 254.527 698.444 254.609ZM723.395 253.823C721.089 253.895 719.282 255.82 719.355 258.126C719.428 260.433 721.352 262.239 723.658 262.166C725.965 262.094 727.771 260.17 727.699 257.863C727.626 255.556 725.691 253.74 723.395 253.823ZM624.378 281.92C622.071 281.993 620.265 283.917 620.337 286.223C620.41 288.53 622.334 290.336 624.641 290.264C626.947 290.191 628.754 288.267 628.681 285.96C628.608 283.654 626.684 281.847 624.378 281.92ZM649.329 281.133C647.022 281.206 645.216 283.13 645.288 285.437C645.361 287.743 647.285 289.55 649.592 289.477C651.899 289.404 653.705 287.48 653.632 285.174C653.559 282.867 651.635 281.061 649.329 281.133ZM674.28 280.347C671.973 280.42 670.167 282.344 670.24 284.65C670.312 286.957 672.237 288.763 674.543 288.691C676.85 288.618 678.656 286.694 678.583 284.387C678.511 282.081 676.576 280.264 674.28 280.347ZM699.231 279.56C696.925 279.633 695.118 281.557 695.191 283.864C695.264 286.17 697.188 287.977 699.494 287.904C701.801 287.831 703.607 285.907 703.535 283.601C703.462 281.294 701.527 279.478 699.231 279.56ZM724.172 278.764C721.865 278.837 720.059 280.761 720.132 283.068C720.204 285.374 722.129 287.181 724.435 287.108C726.742 287.035 728.548 285.111 728.475 282.804C728.413 280.508 726.478 278.691 724.172 278.764Z" fill="#A7A7A7"/>
<path d="M265.036 185.063C265.209 184.858 265.413 184.67 265.602 184.476C302.532 147.798 362.207 143.082 409.857 158.047C433.153 165.356 451.429 185.896 473.331 196.087C480.619 199.467 488.301 201.694 496.7 201.924C518.676 202.527 539.2 188.008 561.117 189.669C589.097 191.764 605.576 220.059 609.558 245.21C616.129 286.797 597.098 331.922 573.404 365.147C560.399 383.402 545.765 400.227 531.722 417.67C520.829 431.225 513.651 451.728 528.055 465.812C547.18 484.502 553.064 443.14 575.61 452.582C631.744 476.082 625.341 526.462 612.598 548.029C600.965 567.756 578.539 580.992 555.673 582.863C552.043 583.161 548.394 583.161 544.764 582.863" stroke="#818194" stroke-width="2.82945" stroke-miterlimit="10"/>
<path d="M366.21 447.594C366.21 447.651 366.21 447.709 366.21 447.767C366.21 451.618 383.26 466.305 385.827 469.024" stroke="#F3F6FE" stroke-width="2.82945" stroke-miterlimit="10"/>
<path d="M313.158 582.674C307.986 582.847 303.097 582.826 298.455 582.637C244.722 576.041 204.313 469.024 267.541 436.538" stroke="#818194" stroke-width="2.82945" stroke-miterlimit="10"/>
<path d="M374.096 305.33V196.905C374.092 193.764 372.842 190.753 370.621 188.532C368.401 186.311 365.39 185.062 362.249 185.058H210.847C207.706 185.062 204.695 186.311 202.474 188.532C200.254 190.753 199.004 193.764 199 196.905V411.869C199.004 415.008 200.254 418.017 202.476 420.234C204.697 422.452 207.708 423.697 210.847 423.696H362.249C363.718 423.706 365.174 423.426 366.535 422.873" stroke="#274288" stroke-width="2.82945" stroke-linecap="round" stroke-linejoin="round"/>
<path d="M359.026 192.314H214.069C208.681 192.314 204.313 196.683 204.313 202.071V406.734C204.313 412.123 208.681 416.491 214.069 416.491H359.026C364.415 416.491 368.783 412.123 368.783 406.734V202.071C368.783 196.683 364.415 192.314 359.026 192.314Z" fill="#4F4F4F"/>
<path d="M356.018 209.663H218.874C216.18 209.663 213.996 211.847 213.996 214.541V246.755C213.996 249.449 216.18 251.633 218.874 251.633H356.018C358.713 251.633 360.897 249.449 360.897 246.755V214.541C360.897 211.847 358.713 209.663 356.018 209.663Z" fill="#F4F4F4"/>
<path d="M286.545 227.342C288.944 227.342 290.889 225.397 290.889 222.998C290.889 220.599 288.944 218.654 286.545 218.654C284.146 218.654 282.202 220.599 282.202 222.998C282.202 225.397 284.146 227.342 286.545 227.342Z" fill="#5678E9"/>
<path d="M274.421 242.642C274.387 241.028 274.676 239.424 275.27 237.923C275.865 236.422 276.753 235.055 277.882 233.902C279.012 232.749 280.36 231.833 281.848 231.207C283.336 230.582 284.934 230.26 286.548 230.26C288.162 230.26 289.76 230.582 291.248 231.207C292.736 231.833 294.084 232.749 295.214 233.902C296.343 235.055 297.231 236.422 297.826 237.923C298.42 239.424 298.709 241.028 298.675 242.642H274.421Z" fill="#5678E9"/>
<path d="M228.683 270.371H342.909" stroke="white" stroke-width="2.82945" stroke-miterlimit="10"/>
<path d="M228.683 281.615H342.909" stroke="white" stroke-width="2.82945" stroke-miterlimit="10"/>
<path d="M228.683 354.018H342.909" stroke="white" stroke-width="2.82945" stroke-miterlimit="10"/>
<path d="M255.217 364.649H316.375" stroke="white" stroke-width="2.82945" stroke-miterlimit="10"/>
<path d="M257.632 324.109L248.521 333.792C247.028 335.379 244.967 336.307 242.789 336.373C240.612 336.44 238.498 335.638 236.912 334.146C235.326 332.653 234.397 330.592 234.331 328.415C234.265 326.238 235.066 324.124 236.558 322.537L245.665 312.854L257.632 324.109Z" fill="#D2B453"/>
<path d="M266.734 314.416L257.622 324.109L245.655 312.854L254.772 303.166C256.267 301.584 258.328 300.659 260.504 300.592C262.68 300.525 264.793 301.323 266.383 302.81C267.959 304.308 268.879 306.367 268.945 308.54C269.011 310.714 268.216 312.825 266.734 314.416Z" fill="#CEEDFF"/>
<path d="M302.15 308.107C301.762 306.231 305.608 303.129 306.892 302.453C311.571 300.001 318.77 301.851 321.332 306.535C327.217 317.277 310.685 332.587 302.15 336.37C301.17 335.584 277.817 318.115 283.313 306.934C288.81 295.752 300.793 301.432 302.15 308.107Z" fill="#CEEDFF"/>
<path d="M284.522 327.253H297.25" stroke="white" stroke-width="2.82945" stroke-linecap="round" stroke-linejoin="round"/>
<path d="M290.889 333.615V320.887" stroke="white" stroke-width="2.82945" stroke-linecap="round" stroke-linejoin="round"/>
<path d="M536.69 330.114C536.69 330.114 507.295 314.274 488.338 310.444C488.338 310.444 488.207 313.274 485.052 320.258C481.898 327.243 472.592 347.882 472.592 347.882L458.623 337.272L458.833 353.09L420.509 394.023L396.286 340.997L399.514 326.079L385.712 331.366L378.377 305.068C378.377 305.068 342.034 313.242 310.732 338.43C279.43 363.617 270.465 402.878 267.556 436.543C264.648 470.209 268.143 505.734 312.618 517.702C312.618 517.702 333.514 522.941 350.528 515.93C355.83 513.74 363.533 511.697 371.612 509.905L371.35 509.999C371.35 509.999 367.682 522.726 357.056 529.653C357.056 529.653 375.673 543.8 407.483 549.968C439.294 556.135 506.514 559.823 540.394 530.429C574.274 501.034 575.658 452.572 575.658 452.572C575.658 452.572 586.624 359.001 536.69 330.114ZM362.621 412.807C361.467 412.769 360.35 412.393 359.409 411.725C358.468 411.057 357.744 410.126 357.327 409.05C356.911 407.974 356.82 406.798 357.066 405.671C357.313 404.543 357.885 403.513 358.713 402.708C359.54 401.903 360.586 401.36 361.72 401.145C362.854 400.93 364.027 401.054 365.091 401.5C366.155 401.947 367.065 402.696 367.707 403.656C368.348 404.616 368.693 405.743 368.699 406.897C368.671 408.485 368.017 409.998 366.878 411.105C365.739 412.212 364.209 412.824 362.621 412.807ZM491.796 466.75C490.905 471.278 486.132 499.918 474.332 503.282C462.532 506.646 450.884 499.331 423.36 502.187C423.36 502.187 417.428 502.412 409.212 503.145C392.052 483.041 409.328 454.385 409.328 454.385C409.328 454.385 448.332 442.506 466.928 451.078C485.524 459.65 492.702 462.213 491.796 466.75Z" fill="#0EABEB"/>
<path d="M362.621 396.129C368.73 396.129 373.703 400.971 373.703 406.923C373.703 412.875 368.73 417.717 362.621 417.717C356.511 417.717 351.544 412.875 351.544 406.923C351.544 400.971 356.511 396.129 362.621 396.129ZM362.621 392.351C354.415 392.351 347.766 398.875 347.766 406.923C347.766 414.971 354.415 421.495 362.621 421.495C370.826 421.495 377.475 414.971 377.475 406.923C377.475 398.875 370.821 392.346 362.621 392.346V392.351Z" fill="white"/>
<path d="M437.643 326.583L428.117 337.287C427.805 337.538 427.445 337.724 427.059 337.831C426.673 337.939 426.269 337.968 425.871 337.915C425.474 337.862 425.092 337.729 424.747 337.524C424.403 337.318 424.104 337.045 423.868 336.721L417.167 322.302L430.266 311.932L437.643 326.583Z" fill="#D2B453"/>
<path d="M431.597 333.363L435.642 349.59L423.852 364.56L415.044 345.037L421.568 331.812" fill="#D2B453"/>
<path d="M471.727 217.125C469.631 217.596 467.797 219.22 466.398 220.955C465.098 222.58 463.997 224.355 463.118 226.242C463.118 226.242 458.696 207.379 456.83 191.015C456.207 185.691 454.342 182.841 452.073 181.405C447.394 178.44 441.07 181.61 441.07 181.61L420.058 193.053C416.027 195.275 411.59 196.661 407.011 197.13C404.872 197.376 402.711 197.376 400.572 197.13C388.997 191.408 388.829 168.835 402.893 168.678C403.316 169.073 403.713 169.495 404.082 169.941C403.876 169.529 403.687 169.115 403.516 168.699C404.303 168.723 405.086 168.811 405.859 168.961C407.011 169.186 408.086 170.376 408.803 171.209C405.067 163.957 409.05 154.819 416.411 152.047C420.886 150.365 425.89 150.685 430.559 151.67C431.297 151.817 432.031 151.99 432.77 152.194C444.475 155.726 454.724 161.861 462.296 172.105C471.879 185.068 474.274 201.473 471.727 217.125Z" fill="#141414"/>
<path d="M338.277 413.101C325.456 470.214 374.672 460.646 438.628 449.386C461.479 445.367 480.923 455.286 492.189 464.539" stroke="#274288" stroke-width="2.82945" stroke-linejoin="round"/>
<path d="M378.34 305.058C349.276 312.21 314.987 329.558 296.124 353.106C271.429 383.889 266.284 424.822 266.818 463.14C267.342 500.578 306.572 526.436 342.181 518.346" stroke="#274288" stroke-width="2.82945" stroke-linejoin="round"/>
<path d="M393.394 291.073H393.41" stroke="#274288" stroke-width="2.82945" stroke-linejoin="round"/>
<path d="M495.332 415.207C495.332 415.207 496.38 439.986 492.188 464.539C490.286 475.747 487.295 486.907 482.626 495.647C481.373 497.956 479.531 499.892 477.287 501.259C475.044 502.625 472.478 503.374 469.852 503.428C465.064 503.516 460.276 503.325 455.51 502.857C414.441 499.001 375.951 507.463 347.881 516.764C345.995 517.382 344.098 517.906 342.191 518.335C359.896 534.4 405.445 564.099 491.565 551.22C607.389 533.929 571.172 381.018 571.172 381.018C568.028 364.544 558.209 349.25 546.404 337.665C533.032 324.565 507.106 315.904 489.48 310.418" stroke="#274288" stroke-width="2.82945" stroke-linejoin="round"/>
<path d="M427.541 281.631C427.541 281.631 392.309 275.343 397.03 233.792C399.126 215.307 403.166 203.999 406.986 197.114" stroke="#274288" stroke-width="2.82945" stroke-linejoin="round"/>
<path d="M460.907 270.701C467.399 260.997 466.42 248.086 468.458 244.837C471.602 239.797 484.177 224.072 476.632 218.408C474.892 217.104 473.231 216.836 471.722 217.14C466.645 218.272 463.113 226.263 463.113 226.263C463.113 226.263 458.696 207.4 456.826 191.031C454.955 174.662 441.059 181.631 441.059 181.631L420.048 193.069C416.019 195.295 411.581 196.683 407.001 197.151C404.605 197.433 402.183 197.413 399.791 197.093C383.548 194.997 382.5 164.245 401.133 167.751C402.285 167.976 403.36 169.165 404.077 169.998C400.336 162.747 404.324 153.609 411.685 150.837C416.16 149.155 421.164 149.474 425.833 150.46C440.41 153.535 453.263 159.917 462.291 172.131C471.879 185.099 474.279 201.505 471.722 217.156" stroke="#274288" stroke-width="2.82945" stroke-linejoin="round"/>
<path d="M423.139 242.605H415.589L416.076 236.622L418.099 212.404" stroke="#274288" stroke-width="2.82945" stroke-linejoin="round"/>
<path d="M416.066 236.622H395.312C393.841 236.622 392.431 236.038 391.392 234.998C390.352 233.958 389.768 232.549 389.768 231.078V212.404H424.822V231.078C424.823 232.549 425.408 233.959 426.449 234.998C427.489 236.038 428.9 236.622 430.371 236.622H450.936C452.407 236.622 453.818 236.038 454.858 234.998C455.899 233.959 456.484 232.549 456.485 231.078V212.404H424.822" stroke="#274288" stroke-width="2.82945" stroke-linejoin="round"/>
<path d="M423.14 249.826C423.14 249.826 428.489 251.712 434.468 242.584" stroke="#274288" stroke-width="2.82945" stroke-linejoin="round"/>
<path d="M420.294 395.857L459.341 352.524L458.628 337.266L472.131 348.903L489.48 310.439L489.527 310.339C485.285 307.839 481.326 304.886 477.722 301.531C476.059 299.977 474.487 298.349 473.006 296.648C471.254 294.659 469.62 292.57 468.112 290.391L466.923 288.667" stroke="#274288" stroke-width="2.82945" stroke-linejoin="round"/>
<path d="M445.907 335.767L437.864 324.696L429.297 313.399L447.29 302.511L466.907 288.667L472.991 296.648L475.034 299.335L470.072 305.691L431.324 355.432V355.448L423.994 364.56" stroke="#274288" stroke-width="2.82945" stroke-linejoin="round"/>
<path d="M408.327 329.469L429.286 313.415L403.538 287.683L393.781 296.884L423.978 364.581L420.284 395.867L396.291 340.997L399.503 326.085L385.701 331.371L377.69 305.346C386.898 301.792 395.224 296.281 402.091 289.192L403.548 287.683" stroke="#274288" stroke-width="2.82945" stroke-linejoin="round"/>
<path d="M437.868 326.582L428.326 337.287C428.015 337.538 427.655 337.723 427.269 337.831C426.884 337.939 426.48 337.967 426.083 337.914C425.686 337.861 425.304 337.728 424.96 337.523C424.616 337.318 424.318 337.045 424.082 336.721L417.375 322.301" stroke="#274288" stroke-width="2.82945" stroke-linejoin="round"/>
<path d="M431.827 333.363L435.872 349.59" stroke="#274288" stroke-width="2.82945" stroke-linejoin="round"/>
<path d="M421.798 331.812L415.275 345.037" stroke="#274288" stroke-width="2.82945" stroke-linejoin="round"/>
<path d="M466.892 288.668L460.892 270.68C459.263 272.962 457.164 274.869 454.735 276.271" stroke="#274288" stroke-width="2.82945" stroke-linejoin="round"/>
<path d="M407.656 270.68L403.548 287.667" stroke="#274288" stroke-width="2.82945" stroke-linejoin="round"/>
<path d="M436.103 227.504C437.625 227.504 438.859 226.271 438.859 224.748C438.859 223.226 437.625 221.992 436.103 221.992C434.581 221.992 433.347 223.226 433.347 224.748C433.347 226.271 434.581 227.504 436.103 227.504Z" fill="#274288"/>
<path d="M412.068 227.504C413.59 227.504 414.824 226.271 414.824 224.748C414.824 223.226 413.59 221.992 412.068 221.992C410.546 221.992 409.312 223.226 409.312 224.748C409.312 226.271 410.546 227.504 412.068 227.504Z" fill="#274288"/>
<path d="M489.019 310.606C489.019 310.606 507.557 317.722 490.905 346.493C485.665 355.516 482.825 360.861 481.374 363.921" stroke="#274288" stroke-width="2.82945" stroke-linejoin="round"/>
<path d="M449.684 427.269C449.684 427.269 442.438 424.026 442.658 422.029C442.878 420.033 457.455 372.357 467.578 366.184C477.701 360.012 484.188 365.336 484.188 365.336C484.188 365.336 494.018 370.659 491.057 384.56C488.097 398.461 469.967 431.665 469.967 431.665L462.857 429.234" stroke="#274288" stroke-width="2.82945" stroke-linejoin="round"/>
<path d="M371.319 307.054C371.319 307.054 360.787 341.636 362.936 393.137" stroke="#274288" stroke-width="2.82945" stroke-linejoin="round"/>
<path d="M362.63 422.127C371.32 422.085 378.331 415.269 378.291 406.903C378.25 398.537 371.172 391.789 362.482 391.832C353.792 391.874 346.78 398.69 346.821 407.056C346.862 415.422 353.94 422.17 362.63 422.127Z" stroke="#274288" stroke-width="2.82945" stroke-linejoin="round"/>
<path d="M524.544 582.868V540.934V539.86" stroke="#274288" stroke-width="2.82945" stroke-linejoin="round"/>
<path d="M326.822 582.716V519.792V519.771" stroke="#274288" stroke-width="2.82945" stroke-linejoin="round"/>
<path d="M251.654 582.584C251.654 582.584 282.747 582.642 326.472 582.7C384.633 582.773 465.078 582.867 524.534 582.867C570.371 582.867 603.711 582.773 604.675 582.584" stroke="#274288" stroke-width="2.82945" stroke-linejoin="round"/>
<path d="M451.979 431.665C454.095 431.665 455.809 429.95 455.809 427.835C455.809 425.719 454.095 424.004 451.979 424.004C449.864 424.004 448.149 425.719 448.149 427.835C448.149 429.95 449.864 431.665 451.979 431.665Z" fill="white"/>
<path d="M460.949 432.409C463.064 432.409 464.779 430.694 464.779 428.579C464.779 426.463 463.064 424.749 460.949 424.749C458.834 424.749 457.119 426.463 457.119 428.579C457.119 430.694 458.834 432.409 460.949 432.409Z" fill="white"/>
<g filter="url(#filter2_d_812_84328)">
<path d="M583 248C613.928 248 639 222.928 639 192C639 161.072 613.928 136 583 136C552.072 136 527 161.072 527 192C527 222.928 552.072 248 583 248Z" fill="white"/>
</g>
<path d="M582.501 145C574.163 145 565.972 147.195 558.752 151.364C551.531 155.534 545.535 161.53 541.366 168.751C537.196 175.971 535 184.162 535 192.5C535 200.838 537.196 209.029 541.366 216.249C545.535 223.47 551.531 229.466 558.752 233.635C565.972 237.805 574.163 240 582.501 240C590.839 240 599.03 237.805 606.251 233.635C613.471 229.466 619.468 223.47 623.636 216.249C627.805 209.029 630 200.838 630 192.5C630 184.162 627.805 175.971 623.636 168.751C619.468 161.53 613.471 155.534 606.251 151.364C599.03 147.195 590.839 145 582.501 145Z" fill="#5678E9"/>
<path d="M594.489 179.53L593.161 178.596L606.669 159.211L608 160.148L594.489 179.53Z" fill="white"/>
<path d="M570.277 209.079L566.357 214.684L569.897 217.159L573.817 211.555L570.277 209.079Z" fill="white"/>
<path d="M596.779 184.603L578.331 210.977C577.345 212.382 575.717 212.941 574.683 212.221L569.442 208.56C568.412 207.839 568.379 206.117 569.362 204.709L587.81 178.335C588.795 176.93 590.424 176.367 591.458 177.091L596.698 180.755C597.729 181.472 597.761 183.194 596.779 184.603Z" fill="white"/>
<path d="M574.205 223.325C573.847 223.854 573.334 224.26 572.735 224.485C572.492 224.587 572.227 224.628 571.964 224.604C571.701 224.581 571.447 224.493 571.226 224.349L559.272 215.978C558.432 215.39 558.412 213.968 559.21 212.827C559.569 212.295 560.086 211.887 560.687 211.661C560.931 211.564 561.194 211.526 561.456 211.552C561.717 211.577 561.969 211.664 562.189 211.806L574.144 220.178C574.968 220.762 574.993 222.178 574.205 223.325Z" fill="white"/>
<path d="M608.877 335.506C621.387 335.506 631.528 325.364 631.528 312.854C631.528 300.344 621.387 290.203 608.877 290.203C596.367 290.203 586.226 300.344 586.226 312.854C586.226 325.364 596.367 335.506 608.877 335.506Z" fill="#5678E9"/>
<path d="M601.589 314.149C605.614 314.149 608.877 310.886 608.877 306.86C608.877 302.835 605.614 299.572 601.589 299.572C597.564 299.572 594.3 302.835 594.3 306.86C594.3 310.886 597.564 314.149 601.589 314.149Z" fill="white"/>
<path d="M245.665 541.296C258.175 541.296 268.316 531.154 268.316 518.644C268.316 506.134 258.175 495.993 245.665 495.993C233.155 495.993 223.014 506.134 223.014 518.644C223.014 531.154 233.155 541.296 245.665 541.296Z" fill="#5678E9"/>
<path d="M538.764 304.261C545.018 304.261 550.087 299.192 550.087 292.938C550.087 286.685 545.018 281.615 538.764 281.615C532.511 281.615 527.441 286.685 527.441 292.938C527.441 299.192 532.511 304.261 538.764 304.261Z" fill="#CEEDFF"/>
<path d="M239.953 519.499C243.979 519.499 247.242 516.235 247.242 512.21C247.242 508.185 243.979 504.922 239.953 504.922C235.928 504.922 232.665 508.185 232.665 512.21C232.665 516.235 235.928 519.499 239.953 519.499Z" fill="white"/>
<path d="M534.73 294.243C536.958 294.243 538.764 292.437 538.764 290.208C538.764 287.98 536.958 286.174 534.73 286.174C532.502 286.174 530.695 287.98 530.695 290.208C530.695 292.437 532.502 294.243 534.73 294.243Z" fill="white"/>
<path d="M620.426 534.861C626.679 534.861 631.749 529.792 631.749 523.538C631.749 517.285 626.679 512.215 620.426 512.215C614.172 512.215 609.103 517.285 609.103 523.538C609.103 529.792 614.172 534.861 620.426 534.861Z" fill="#5678E9"/>
<path d="M615.715 524.01C617.269 524.01 618.529 522.75 618.529 521.196C618.529 519.642 617.269 518.382 615.715 518.382C614.161 518.382 612.901 519.642 612.901 521.196C612.901 522.75 614.161 524.01 615.715 524.01Z" fill="white"/>
<path d="M353.514 161.94C359.767 161.94 364.837 156.87 364.837 150.617C364.837 144.363 359.767 139.293 353.514 139.293C347.26 139.293 342.191 144.363 342.191 150.617C342.191 156.87 347.26 161.94 353.514 161.94Z" fill="#CEEDFF"/>
<path d="M351.796 153.645C354.024 153.645 355.831 151.839 355.831 149.611C355.831 147.382 354.024 145.576 351.796 145.576C349.568 145.576 347.761 147.382 347.761 149.611C347.761 151.839 349.568 153.645 351.796 153.645Z" fill="white"/>
<path d="M586.226 465.943C609.388 465.943 628.165 447.167 628.165 424.005C628.165 400.843 609.388 382.066 586.226 382.066C563.064 382.066 544.288 400.843 544.288 424.005C544.288 447.167 563.064 465.943 586.226 465.943Z" fill="#030229"/>
<path d="M585.833 417.465C585.451 415.59 589.292 412.488 590.575 411.812C595.26 409.36 602.454 411.209 605.021 415.893C610.9 426.635 594.369 441.951 585.839 445.728C584.853 444.942 561.5 427.473 566.976 416.292C572.451 405.11 584.482 410.795 585.833 417.465Z" fill="white"/>
<g filter="url(#filter3_d_812_84328)">
<circle cx="195" cy="146" r="66" fill="white"/>
</g>
<g clip-path="url(#clip0_812_84328)">
<path d="M236.565 139.514C228.375 136.238 225.221 130.695 222.685 126.242C220.667 122.697 218.76 119.35 214.875 118.645C210.827 117.901 205.589 120.406 196.654 127.426V117.729C199.669 116.654 201.847 113.799 201.847 110.418C201.847 106.123 198.352 102.628 194.057 102.628C189.762 102.628 186.267 106.123 186.267 110.418C186.267 113.799 188.445 116.654 191.461 117.729V127.424C181.589 119.663 178.264 117.723 173.239 118.645C169.354 119.35 167.448 122.697 165.429 126.242C162.894 130.695 159.739 136.238 151.549 139.514C150.392 139.975 149.728 141.192 149.961 142.415C150.2 143.637 151.27 144.519 152.512 144.519H157.706C157.817 144.519 169.025 144.357 174.783 130.538C175.336 129.214 176.857 128.61 178.179 129.138C179.502 129.691 180.129 131.212 179.576 132.536C177.213 138.206 174.057 141.974 170.878 144.519H176.727C179.144 142.46 181.074 139.842 181.074 136.73C181.074 135.294 182.236 134.133 183.671 134.133C185.106 134.133 186.267 135.294 186.267 136.73C186.267 139.713 185.253 142.301 183.722 144.519H191.461V149.712H183.671C179.376 149.712 175.881 153.207 175.881 157.502C175.881 161.797 179.376 165.292 183.671 165.292H191.461V170.485H188.864C184.569 170.485 181.074 173.979 181.074 178.274C181.074 182.57 184.569 186.064 188.864 186.064H191.461V188.66C191.461 190.096 192.622 191.257 194.057 191.257C195.492 191.257 196.654 190.096 196.654 188.66V186.064H199.25C200.685 186.064 201.847 184.903 201.847 183.467C201.847 182.032 200.685 180.871 199.25 180.871H196.654V175.678H199.25C203.546 175.678 207.04 172.183 207.04 167.888C207.04 163.593 203.546 160.099 199.25 160.099H196.654V154.905H204.443C207.379 154.905 209.91 153.254 211.237 150.849C209.78 149.908 208.306 148.801 206.961 147.506C206.764 148.744 205.735 149.712 204.443 149.712H196.654V144.519H204.392C202.861 142.301 201.847 139.713 201.847 136.73C201.847 135.294 203.008 134.133 204.443 134.133C205.878 134.133 207.04 135.294 207.04 136.73C207.04 139.842 208.97 142.46 211.387 144.519H217.236C214.057 141.974 210.901 138.205 208.538 132.536C207.986 131.212 208.612 129.69 209.935 129.138C211.257 128.61 212.778 129.214 213.331 130.537C219.089 144.357 230.297 144.519 230.409 144.519H235.602C236.844 144.519 237.914 143.637 238.153 142.415C238.386 141.192 237.722 139.975 236.565 139.514ZM191.461 180.871H188.864C187.434 180.871 186.268 179.704 186.268 178.274C186.268 176.844 187.434 175.678 188.864 175.678H191.461V180.871ZM191.461 160.099H183.671C182.241 160.099 181.075 158.932 181.075 157.502C181.075 156.072 182.241 154.905 183.671 154.905H191.461V160.099ZM199.25 165.292C200.68 165.292 201.847 166.458 201.847 167.888C201.847 169.318 200.68 170.485 199.25 170.485H196.654V165.292H199.25Z" fill="url(#paint7_linear_812_84328)"/>
</g>
<defs>
<filter id="filter0_d_812_84328" x="0" y="175" width="230" height="230" filterUnits="userSpaceOnUse" color-interpolation-filters="sRGB">
<feFlood flood-opacity="0" result="BackgroundImageFix"/>
<feColorMatrix in="SourceAlpha" type="matrix" values="0 0 0 0 0 0 0 0 0 0 0 0 0 0 0 0 0 0 127 0" result="hardAlpha"/>
<feOffset/>
<feGaussianBlur stdDeviation="40"/>
<feComposite in2="hardAlpha" operator="out"/>
<feColorMatrix type="matrix" values="0 0 0 0 0 0 0 0 0 0 0 0 0 0 0 0 0 0 0.1 0"/>
<feBlend mode="normal" in2="BackgroundImageFix" result="effect1_dropShadow_812_84328"/>
<feBlend mode="normal" in="SourceGraphic" in2="effect1_dropShadow_812_84328" result="shape"/>
</filter>
<filter id="filter1_d_812_84328" x="599" y="41" width="234" height="234" filterUnits="userSpaceOnUse" color-interpolation-filters="sRGB">
<feFlood flood-opacity="0" result="BackgroundImageFix"/>
<feColorMatrix in="SourceAlpha" type="matrix" values="0 0 0 0 0 0 0 0 0 0 0 0 0 0 0 0 0 0 127 0" result="hardAlpha"/>
<feOffset/>
<feGaussianBlur stdDeviation="40"/>
<feComposite in2="hardAlpha" operator="out"/>
<feColorMatrix type="matrix" values="0 0 0 0 0 0 0 0 0 0 0 0 0 0 0 0 0 0 0.1 0"/>
<feBlend mode="normal" in2="BackgroundImageFix" result="effect1_dropShadow_812_84328"/>
<feBlend mode="normal" in="SourceGraphic" in2="effect1_dropShadow_812_84328" result="shape"/>
</filter>
<filter id="filter2_d_812_84328" x="427" y="36" width="312" height="312" filterUnits="userSpaceOnUse" color-interpolation-filters="sRGB">
<feFlood flood-opacity="0" result="BackgroundImageFix"/>
<feColorMatrix in="SourceAlpha" type="matrix" values="0 0 0 0 0 0 0 0 0 0 0 0 0 0 0 0 0 0 127 0" result="hardAlpha"/>
<feOffset/>
<feGaussianBlur stdDeviation="50"/>
<feComposite in2="hardAlpha" operator="out"/>
<feColorMatrix type="matrix" values="0 0 0 0 0 0 0 0 0 0 0 0 0 0 0 0 0 0 0.1 0"/>
<feBlend mode="normal" in2="BackgroundImageFix" result="effect1_dropShadow_812_84328"/>
<feBlend mode="normal" in="SourceGraphic" in2="effect1_dropShadow_812_84328" result="shape"/>
</filter>
<filter id="filter3_d_812_84328" x="49" y="0" width="292" height="292" filterUnits="userSpaceOnUse" color-interpolation-filters="sRGB">
<feFlood flood-opacity="0" result="BackgroundImageFix"/>
<feColorMatrix in="SourceAlpha" type="matrix" values="0 0 0 0 0 0 0 0 0 0 0 0 0 0 0 0 0 0 127 0" result="hardAlpha"/>
<feOffset/>
<feGaussianBlur stdDeviation="40"/>
<feComposite in2="hardAlpha" operator="out"/>
<feColorMatrix type="matrix" values="0 0 0 0 0 0 0 0 0 0 0 0 0 0 0 0 0 0 0.1 0"/>
<feBlend mode="normal" in2="BackgroundImageFix" result="effect1_dropShadow_812_84328"/>
<feBlend mode="normal" in="SourceGraphic" in2="effect1_dropShadow_812_84328" result="shape"/>
</filter>
<linearGradient id="paint0_linear_812_84328" x1="115" y1="266.064" x2="115" y2="313.936" gradientUnits="userSpaceOnUse">
<stop stop-color="#0EABEB"/>
<stop offset="1" stop-color="#5678E9"/>
</linearGradient>
<linearGradient id="paint1_linear_812_84328" x1="715.475" y1="168.075" x2="715.475" y2="182.619" gradientUnits="userSpaceOnUse">
<stop stop-color="#0EABEB"/>
<stop offset="1" stop-color="#5678E9"/>
</linearGradient>
<linearGradient id="paint2_linear_812_84328" x1="710.759" y1="160.125" x2="710.759" y2="166.569" gradientUnits="userSpaceOnUse">
<stop stop-color="#0EABEB"/>
<stop offset="1" stop-color="#5678E9"/>
</linearGradient>
<linearGradient id="paint3_linear_812_84328" x1="726.73" y1="143.503" x2="726.73" y2="147.177" gradientUnits="userSpaceOnUse">
<stop stop-color="#0EABEB"/>
<stop offset="1" stop-color="#5678E9"/>
</linearGradient>
<linearGradient id="paint4_linear_812_84328" x1="726.722" y1="146.378" x2="726.722" y2="150.436" gradientUnits="userSpaceOnUse">
<stop stop-color="#0EABEB"/>
<stop offset="1" stop-color="#5678E9"/>
</linearGradient>
<linearGradient id="paint5_linear_812_84328" x1="714.711" y1="134.439" x2="714.711" y2="174.963" gradientUnits="userSpaceOnUse">
<stop stop-color="#0EABEB"/>
<stop offset="1" stop-color="#5678E9"/>
</linearGradient>
<linearGradient id="paint6_linear_812_84328" x1="717.448" y1="150.195" x2="717.448" y2="179.608" gradientUnits="userSpaceOnUse">
<stop stop-color="#0EABEB"/>
<stop offset="1" stop-color="#5678E9"/>
</linearGradient>
<linearGradient id="paint7_linear_812_84328" x1="194.057" y1="102.628" x2="194.057" y2="191.257" gradientUnits="userSpaceOnUse">
<stop stop-color="#0EABEB"/>
<stop offset="1" stop-color="#5678E9"/>
</linearGradient>
<clipPath id="clip0_812_84328">
<rect width="88.6286" height="88.6286" fill="white" transform="translate(149.743 102.628)"/>
</clipPath>
</defs>
</svg>
