<svg width="337" height="117" viewBox="0 0 337 117" fill="none" xmlns="http://www.w3.org/2000/svg">
<path d="M87.7601 77.9735H50.4312V73.0091C50.4312 68.8273 53.8159 65.4375 57.9914 65.4375H95.3203V70.4019C95.3206 74.5834 91.9356 77.9735 87.7601 77.9735Z" fill="#0EABEB"/>
<path d="M66.6191 94.1855V56.8001C66.6191 52.6184 70.0039 49.2285 74.1794 49.2285H79.1364V86.6135C79.1364 90.7953 75.7516 94.1852 71.5761 94.1852L66.6191 94.1855Z" fill="#0EABEB"/>
<path d="M48.0961 90.3719C43.6677 87.8737 39.4392 84.9593 35.5785 81.5376C33.6397 79.8359 31.8364 77.9666 30.1504 75.9789C28.4719 73.9853 26.9263 71.8527 25.5916 69.5718L24.6439 67.829L23.795 66.0632C23.2586 64.8446 22.7431 63.5407 22.3392 62.2866C21.5105 59.7411 20.9438 57.0984 20.6735 54.4047C20.1672 49.0295 20.8908 43.3947 23.2467 38.2789L24.2038 36.3986L25.3157 34.5957L25.3859 34.483L25.5177 34.3028L25.6581 34.1107L25.9385 33.7261L26.4997 32.9569C26.9811 32.3949 27.4681 31.812 27.9637 31.277C29.9089 29.2211 32.1591 27.4789 34.5904 26.0771C37.0208 24.6689 39.6461 23.6281 42.3536 22.919C45.0634 22.2174 47.868 21.8503 50.688 21.8807C51.3926 21.892 52.0978 21.943 52.8027 21.9758L54.8031 22.2002C55.5211 22.3239 56.2644 22.4356 56.961 22.582C57.6395 22.7465 58.3285 22.88 58.9982 23.0756C61.6921 23.8119 64.284 24.8699 66.7153 26.1981C71.5792 28.8519 75.861 32.4959 79.2384 36.8679L74.3602 36.5103C76.2327 34.7421 78.292 33.1932 80.4845 31.8783C82.6774 30.5658 85.0057 29.4796 87.4364 28.6938C92.2819 27.1201 97.5058 26.4958 102.623 27.3095C103.264 27.3746 103.894 27.5428 104.528 27.6649C105.164 27.7813 105.788 27.9541 106.408 28.1419L107.341 28.4136L107.457 28.4476L107.515 28.4648L107.688 28.5247L107.891 28.6023L108.298 28.7573L109.111 29.0673L109.516 29.2245L109.979 29.439C110.594 29.7334 111.228 30.0232 111.818 30.3347L113.492 31.3151C114.568 32.0269 115.631 32.7577 116.606 33.595C120.561 36.8689 123.609 41.1875 125.315 46.0255C126.17 48.4405 126.686 50.9859 126.796 53.5603L126.778 55.4921L126.775 55.7331L126.765 55.9179L126.755 56.0265L126.714 56.4605L126.624 57.3319C126.431 58.6702 126.195 59.9118 125.841 61.115C125.155 63.5355 124.17 65.8385 122.936 67.9637C121.703 70.0902 120.281 72.081 118.668 73.8837C115.428 77.485 111.651 80.4464 107.652 82.9203C103.665 85.4188 99.4985 87.506 95.3071 89.5263C99.1488 86.898 103.034 84.3344 106.64 81.478C110.23 78.6207 113.6 75.5096 116.243 71.9055C117.551 70.0976 118.737 68.2191 119.683 66.2412C120.642 64.2713 121.34 62.2034 121.769 60.1144C121.998 59.0668 122.105 58.0048 122.183 57.0361L122.209 56.1687L122.225 55.7331L122.229 55.6241L122.231 55.5698C122.234 55.4964 122.227 55.6392 122.227 55.6158L122.226 55.5916L122.217 55.397L122.149 53.8436C121.946 51.7769 121.419 49.7453 120.62 47.8223C119.818 45.9015 118.762 44.0764 117.467 42.4352C116.162 40.8023 114.667 39.329 113.03 38.0558C112.219 37.4063 111.34 36.8584 110.462 36.3185L109.103 35.5898L107.792 35.0066L107.462 34.8599L107.051 34.7178L106.229 34.4299L105.818 34.2859L105.613 34.2138L105.587 34.2049C105.472 34.165 105.716 34.2488 105.682 34.2384L105.636 34.2264L105.543 34.2025L104.798 34.0103C104.304 33.8737 103.807 33.7473 103.297 33.673C102.789 33.5929 102.291 33.4634 101.774 33.4311C97.6866 32.9038 93.4526 33.4815 89.5085 34.8231C87.5277 35.4901 85.6475 36.4336 83.861 37.5024C82.0798 38.5843 80.4159 39.8511 78.9166 41.2787L76.2922 43.7784L74.038 40.9211C71.1743 37.2909 67.6059 34.1828 63.5721 31.9643C61.5554 30.859 59.4352 29.9596 57.2491 29.3181C56.7051 29.1468 56.1476 29.0357 55.5978 28.8887C55.0562 28.7659 54.5453 28.6852 54.0179 28.5738L52.2437 28.3427C51.6831 28.3123 51.1238 28.2589 50.5617 28.2401C46.0604 28.0986 41.4694 29.1567 37.4683 31.2773C35.4657 32.3326 33.6128 33.6604 32.0077 35.2316L30.9173 36.3719L29.7937 37.7596L28.8307 39.1479L27.9812 40.6184C26.9211 42.6277 26.1579 44.8211 25.6893 47.1001C25.2158 49.38 25.0515 51.7435 25.1214 54.1134C25.1839 56.4854 25.5113 58.8691 26.0853 61.2015C26.3768 62.39 26.717 63.4775 27.116 64.6184L27.7921 66.3406L28.5442 68.0046C29.5908 70.2078 30.8318 72.3383 32.2446 74.3681C33.6504 76.4046 35.2417 78.3224 36.9108 80.1864C40.2726 83.8976 44.0934 87.2359 48.0961 90.3719Z" fill="#0EABEB"/>
<path d="M176.133 33.3361V65.8711H170.058V51.6511H154.781V65.8711H148.706V33.3361H154.781V47.3311H170.058V33.3361H176.133ZM192.013 42.4261C193.723 42.4261 195.275 42.7036 196.67 43.2586C198.08 43.8136 199.28 44.6011 200.27 45.6211C201.275 46.6411 202.048 47.8861 202.588 49.3561C203.128 50.8261 203.398 52.4686 203.398 54.2836C203.398 56.1136 203.128 57.7636 202.588 59.2336C202.048 60.7036 201.275 61.9561 200.27 62.9911C199.28 64.0261 198.08 64.8211 196.67 65.3761C195.275 65.9311 193.723 66.2086 192.013 66.2086C190.288 66.2086 188.72 65.9311 187.31 65.3761C185.9 64.8211 184.693 64.0261 183.688 62.9911C182.698 61.9561 181.925 60.7036 181.37 59.2336C180.83 57.7636 180.56 56.1136 180.56 54.2836C180.56 52.4686 180.83 50.8261 181.37 49.3561C181.925 47.8861 182.698 46.6411 183.688 45.6211C184.693 44.6011 185.9 43.8136 187.31 43.2586C188.72 42.7036 190.288 42.4261 192.013 42.4261ZM192.013 61.9336C193.933 61.9336 195.35 61.2886 196.265 59.9986C197.195 58.7086 197.66 56.8186 197.66 54.3286C197.66 51.8386 197.195 49.9411 196.265 48.6361C195.35 47.3311 193.933 46.6786 192.013 46.6786C190.063 46.6786 188.615 47.3386 187.67 48.6586C186.74 49.9636 186.275 51.8536 186.275 54.3286C186.275 56.8036 186.74 58.6936 187.67 59.9986C188.615 61.2886 190.063 61.9336 192.013 61.9336ZM221.723 47.2861C221.573 47.5261 221.415 47.6986 221.25 47.8036C221.085 47.8936 220.875 47.9386 220.62 47.9386C220.35 47.9386 220.058 47.8636 219.743 47.7136C219.443 47.5636 219.09 47.3986 218.685 47.2186C218.28 47.0236 217.815 46.8511 217.29 46.7011C216.78 46.5511 216.173 46.4761 215.468 46.4761C214.373 46.4761 213.51 46.7086 212.88 47.1736C212.265 47.6386 211.958 48.2461 211.958 48.9961C211.958 49.4911 212.115 49.9111 212.43 50.2561C212.76 50.5861 213.188 50.8786 213.713 51.1336C214.253 51.3886 214.86 51.6211 215.535 51.8311C216.21 52.0261 216.893 52.2436 217.583 52.4836C218.288 52.7236 218.978 53.0011 219.653 53.3161C220.328 53.6161 220.928 54.0061 221.453 54.4861C221.993 54.9511 222.42 55.5136 222.735 56.1736C223.065 56.8336 223.23 57.6286 223.23 58.5586C223.23 59.6686 223.028 60.6961 222.623 61.6411C222.233 62.5711 221.648 63.3811 220.868 64.0711C220.088 64.7461 219.12 65.2786 217.965 65.6686C216.825 66.0436 215.505 66.2311 214.005 66.2311C213.21 66.2311 212.43 66.1561 211.665 66.0061C210.915 65.8711 210.188 65.6761 209.483 65.4211C208.793 65.1661 208.148 64.8661 207.548 64.5211C206.963 64.1761 206.445 63.8011 205.995 63.3961L207.278 61.2811C207.443 61.0261 207.638 60.8311 207.863 60.6961C208.088 60.5611 208.373 60.4936 208.718 60.4936C209.063 60.4936 209.385 60.5911 209.685 60.7861C210 60.9811 210.36 61.1911 210.765 61.4161C211.17 61.6411 211.643 61.8511 212.183 62.0461C212.738 62.2411 213.435 62.3386 214.275 62.3386C214.935 62.3386 215.498 62.2636 215.963 62.1136C216.443 61.9486 216.833 61.7386 217.133 61.4836C217.448 61.2286 217.673 60.9361 217.808 60.6061C217.958 60.2611 218.033 59.9086 218.033 59.5486C218.033 59.0086 217.868 58.5661 217.538 58.2211C217.223 57.8761 216.795 57.5761 216.255 57.3211C215.73 57.0661 215.123 56.8411 214.433 56.6461C213.758 56.4361 213.06 56.2111 212.34 55.9711C211.635 55.7311 210.938 55.4536 210.248 55.1386C209.573 54.8086 208.965 54.3961 208.425 53.9011C207.9 53.4061 207.473 52.7986 207.143 52.0786C206.828 51.3586 206.67 50.4886 206.67 49.4686C206.67 48.5236 206.858 47.6236 207.233 46.7686C207.608 45.9136 208.155 45.1711 208.875 44.5411C209.61 43.8961 210.518 43.3861 211.598 43.0111C212.693 42.6211 213.953 42.4261 215.378 42.4261C216.968 42.4261 218.415 42.6886 219.72 43.2136C221.025 43.7386 222.113 44.4286 222.983 45.2836L221.723 47.2861ZM232.97 59.8861C233.6 60.6511 234.283 61.1911 235.018 61.5061C235.768 61.8211 236.578 61.9786 237.448 61.9786C238.288 61.9786 239.045 61.8211 239.72 61.5061C240.395 61.1911 240.965 60.7111 241.43 60.0661C241.91 59.4211 242.278 58.6111 242.533 57.6361C242.788 56.6461 242.915 55.4836 242.915 54.1486C242.915 52.7986 242.803 51.6586 242.578 50.7286C242.368 49.7836 242.06 49.0186 241.655 48.4336C241.25 47.8486 240.755 47.4211 240.17 47.1511C239.6 46.8811 238.948 46.7461 238.213 46.7461C237.058 46.7461 236.075 46.9936 235.265 47.4886C234.455 47.9686 233.69 48.6511 232.97 49.5361V59.8861ZM232.678 45.9361C233.623 44.8711 234.695 44.0086 235.895 43.3486C237.095 42.6886 238.505 42.3586 240.125 42.3586C241.385 42.3586 242.533 42.6211 243.568 43.1461C244.618 43.6711 245.518 44.4361 246.268 45.4411C247.033 46.4311 247.618 47.6611 248.023 49.1311C248.443 50.5861 248.653 52.2586 248.653 54.1486C248.653 55.8736 248.42 57.4711 247.955 58.9411C247.49 60.4111 246.823 61.6861 245.953 62.7661C245.098 63.8461 244.055 64.6936 242.825 65.3086C241.61 65.9086 240.245 66.2086 238.73 66.2086C237.44 66.2086 236.338 66.0136 235.423 65.6236C234.508 65.2186 233.69 64.6636 232.97 63.9586V73.4086H227.413V42.7861H230.81C231.53 42.7861 232.003 43.1236 232.228 43.7986L232.678 45.9361ZM258.749 42.7861V65.8711H253.169V42.7861H258.749ZM259.514 36.0586C259.514 36.5386 259.417 36.9886 259.222 37.4086C259.027 37.8286 258.764 38.1961 258.434 38.5111C258.119 38.8261 257.744 39.0811 257.309 39.2761C256.874 39.4561 256.409 39.5461 255.914 39.5461C255.434 39.5461 254.977 39.4561 254.542 39.2761C254.122 39.0811 253.754 38.8261 253.439 38.5111C253.124 38.1961 252.869 37.8286 252.674 37.4086C252.494 36.9886 252.404 36.5386 252.404 36.0586C252.404 35.5636 252.494 35.0986 252.674 34.6636C252.869 34.2286 253.124 33.8536 253.439 33.5386C253.754 33.2236 254.122 32.9761 254.542 32.7961C254.977 32.6011 255.434 32.5036 255.914 32.5036C256.409 32.5036 256.874 32.6011 257.309 32.7961C257.744 32.9761 258.119 33.2236 258.434 33.5386C258.764 33.8536 259.027 34.2286 259.222 34.6636C259.417 35.0986 259.514 35.5636 259.514 36.0586ZM272.11 66.2311C270.1 66.2311 268.555 65.6686 267.475 64.5436C266.41 63.4036 265.877 61.8361 265.877 59.8411V46.9486H263.515C263.215 46.9486 262.96 46.8511 262.75 46.6561C262.54 46.4611 262.435 46.1686 262.435 45.7786V43.5736L266.147 42.9661L267.317 36.6661C267.392 36.3661 267.535 36.1336 267.745 35.9686C267.955 35.8036 268.225 35.7211 268.555 35.7211H271.435V42.9886H277.6V46.9486H271.435V59.4586C271.435 60.1786 271.607 60.7411 271.952 61.1461C272.312 61.5511 272.8 61.7536 273.415 61.7536C273.76 61.7536 274.045 61.7161 274.27 61.6411C274.51 61.5511 274.712 61.4611 274.877 61.3711C275.057 61.2811 275.215 61.1986 275.35 61.1236C275.485 61.0336 275.62 60.9886 275.755 60.9886C275.92 60.9886 276.055 61.0336 276.16 61.1236C276.265 61.1986 276.377 61.3186 276.497 61.4836L278.162 64.1836C277.352 64.8586 276.422 65.3686 275.372 65.7136C274.322 66.0586 273.235 66.2311 272.11 66.2311ZM293.353 56.0161C291.748 56.0911 290.398 56.2336 289.303 56.4436C288.208 56.6386 287.331 56.8936 286.671 57.2086C286.011 57.5236 285.538 57.8911 285.253 58.3111C284.968 58.7311 284.826 59.1886 284.826 59.6836C284.826 60.6586 285.111 61.3561 285.681 61.7761C286.266 62.1961 287.023 62.4061 287.953 62.4061C289.093 62.4061 290.076 62.2036 290.901 61.7986C291.741 61.3786 292.558 60.7486 293.353 59.9086V56.0161ZM280.618 46.0036C283.273 43.5736 286.468 42.3586 290.203 42.3586C291.553 42.3586 292.761 42.5836 293.826 43.0336C294.891 43.4686 295.791 44.0836 296.526 44.8786C297.261 45.6586 297.816 46.5961 298.191 47.6911C298.581 48.7861 298.776 49.9861 298.776 51.2911V65.8711H296.256C295.731 65.8711 295.326 65.7961 295.041 65.6461C294.756 65.4811 294.531 65.1586 294.366 64.6786L293.871 63.0136C293.286 63.5386 292.716 64.0036 292.161 64.4086C291.606 64.7986 291.028 65.1286 290.428 65.3986C289.828 65.6686 289.183 65.8711 288.493 66.0061C287.818 66.1561 287.068 66.2311 286.243 66.2311C285.268 66.2311 284.368 66.1036 283.543 65.8486C282.718 65.5786 282.006 65.1811 281.406 64.6561C280.806 64.1311 280.341 63.4786 280.011 62.6986C279.681 61.9186 279.516 61.0111 279.516 59.9761C279.516 59.3911 279.613 58.8136 279.808 58.2436C280.003 57.6586 280.318 57.1036 280.753 56.5786C281.203 56.0536 281.781 55.5586 282.486 55.0936C283.191 54.6286 284.053 54.2236 285.073 53.8786C286.108 53.5336 287.308 53.2561 288.673 53.0461C290.038 52.8211 291.598 52.6861 293.353 52.6411V51.2911C293.353 49.7461 293.023 48.6061 292.363 47.8711C291.703 47.1211 290.751 46.7461 289.506 46.7461C288.606 46.7461 287.856 46.8511 287.256 47.0611C286.671 47.2711 286.153 47.5111 285.703 47.7811C285.253 48.0361 284.841 48.2686 284.466 48.4786C284.106 48.6886 283.701 48.7936 283.251 48.7936C282.861 48.7936 282.531 48.6961 282.261 48.5011C281.991 48.2911 281.773 48.0511 281.608 47.7811L280.618 46.0036ZM309.635 32.4361V65.8711H304.077V32.4361H309.635Z" fill="#0EABEB"/>
<path d="M148.795 91.9991C148.08 91.9991 147.531 91.7991 147.147 91.3991C146.768 90.9938 146.579 90.4364 146.579 89.7271V85.1431H145.739C145.632 85.1431 145.542 85.1084 145.467 85.0391C145.392 84.9698 145.355 84.8658 145.355 84.7271V83.9431L146.675 83.7271L147.091 81.4871C147.118 81.3804 147.168 81.2978 147.243 81.2391C147.318 81.1804 147.414 81.1511 147.531 81.1511H148.555V83.7351H150.747V85.1431H148.555V89.5911C148.555 89.8471 148.616 90.0471 148.739 90.1911C148.867 90.3351 149.04 90.4071 149.259 90.4071C149.382 90.4071 149.483 90.3938 149.563 90.3671C149.648 90.3351 149.72 90.3031 149.779 90.2711C149.843 90.2391 149.899 90.2098 149.947 90.1831C149.995 90.1511 150.043 90.1351 150.091 90.1351C150.15 90.1351 150.198 90.1511 150.235 90.1831C150.272 90.2098 150.312 90.2524 150.355 90.3111L150.947 91.2711C150.659 91.5111 150.328 91.6924 149.955 91.8151C149.582 91.9378 149.195 91.9991 148.795 91.9991ZM156.348 88.3671C155.777 88.3938 155.297 88.4444 154.908 88.5191C154.519 88.5884 154.207 88.6791 153.972 88.7911C153.737 88.9031 153.569 89.0338 153.468 89.1831C153.367 89.3324 153.316 89.4951 153.316 89.6711C153.316 90.0178 153.417 90.2658 153.62 90.4151C153.828 90.5644 154.097 90.6391 154.428 90.6391C154.833 90.6391 155.183 90.5671 155.476 90.4231C155.775 90.2738 156.065 90.0498 156.348 89.7511V88.3671ZM151.82 84.8071C152.764 83.9431 153.9 83.5111 155.228 83.5111C155.708 83.5111 156.137 83.5911 156.516 83.7511C156.895 83.9058 157.215 84.1244 157.476 84.4071C157.737 84.6844 157.935 85.0178 158.068 85.4071C158.207 85.7964 158.276 86.2231 158.276 86.6871V91.8711H157.38C157.193 91.8711 157.049 91.8444 156.948 91.7911C156.847 91.7324 156.767 91.6178 156.708 91.4471L156.532 90.8551C156.324 91.0418 156.121 91.2071 155.924 91.3511C155.727 91.4898 155.521 91.6071 155.308 91.7031C155.095 91.7991 154.865 91.8711 154.62 91.9191C154.38 91.9724 154.113 91.9991 153.82 91.9991C153.473 91.9991 153.153 91.9538 152.86 91.8631C152.567 91.7671 152.313 91.6258 152.1 91.4391C151.887 91.2524 151.721 91.0204 151.604 90.7431C151.487 90.4658 151.428 90.1431 151.428 89.7751C151.428 89.5671 151.463 89.3618 151.532 89.1591C151.601 88.9511 151.713 88.7538 151.868 88.5671C152.028 88.3804 152.233 88.2044 152.484 88.0391C152.735 87.8738 153.041 87.7298 153.404 87.6071C153.772 87.4844 154.199 87.3858 154.684 87.3111C155.169 87.2311 155.724 87.1831 156.348 87.1671V86.6871C156.348 86.1378 156.231 85.7324 155.996 85.4711C155.761 85.2044 155.423 85.0711 154.98 85.0711C154.66 85.0711 154.393 85.1084 154.18 85.1831C153.972 85.2578 153.788 85.3431 153.628 85.4391C153.468 85.5298 153.321 85.6124 153.188 85.6871C153.06 85.7618 152.916 85.7991 152.756 85.7991C152.617 85.7991 152.5 85.7644 152.404 85.6951C152.308 85.6204 152.231 85.5351 152.172 85.4391L151.82 84.8071ZM163.137 87.5671C163.382 87.5671 163.596 87.5351 163.777 87.4711C163.958 87.4018 164.108 87.3084 164.225 87.1911C164.348 87.0738 164.438 86.9324 164.497 86.7671C164.561 86.6018 164.593 86.4204 164.593 86.2231C164.593 85.8178 164.47 85.4978 164.225 85.2631C163.985 85.0231 163.622 84.9031 163.137 84.9031C162.652 84.9031 162.286 85.0231 162.041 85.2631C161.801 85.4978 161.681 85.8178 161.681 86.2231C161.681 86.4151 161.71 86.5938 161.769 86.7591C161.833 86.9244 161.924 87.0684 162.041 87.1911C162.164 87.3084 162.316 87.4018 162.497 87.4711C162.684 87.5351 162.897 87.5671 163.137 87.5671ZM165.369 92.2391C165.369 92.0791 165.321 91.9484 165.225 91.8471C165.129 91.7458 164.998 91.6684 164.833 91.6151C164.668 91.5564 164.473 91.5138 164.249 91.4871C164.03 91.4604 163.796 91.4418 163.545 91.4311C163.3 91.4151 163.044 91.4018 162.777 91.3911C162.516 91.3804 162.26 91.3591 162.009 91.3271C161.79 91.4498 161.612 91.5938 161.473 91.7591C161.34 91.9244 161.273 92.1164 161.273 92.3351C161.273 92.4791 161.308 92.6124 161.377 92.7351C161.452 92.8631 161.566 92.9724 161.721 93.0631C161.881 93.1538 162.086 93.2231 162.337 93.2711C162.588 93.3244 162.894 93.3511 163.257 93.3511C163.625 93.3511 163.942 93.3218 164.209 93.2631C164.476 93.2098 164.694 93.1324 164.865 93.0311C165.041 92.9351 165.169 92.8178 165.249 92.6791C165.329 92.5458 165.369 92.3991 165.369 92.2391ZM167.337 83.9431V84.6791C167.337 84.9138 167.196 85.0578 166.913 85.1111L166.177 85.2471C166.289 85.5298 166.345 85.8391 166.345 86.1751C166.345 86.5804 166.262 86.9484 166.097 87.2791C165.937 87.6044 165.713 87.8818 165.425 88.1111C165.137 88.3404 164.796 88.5191 164.401 88.6471C164.012 88.7698 163.59 88.8311 163.137 88.8311C162.977 88.8311 162.822 88.8231 162.673 88.8071C162.524 88.7911 162.377 88.7698 162.233 88.7431C161.977 88.8978 161.849 89.0711 161.849 89.2631C161.849 89.4284 161.924 89.5511 162.073 89.6311C162.228 89.7058 162.43 89.7591 162.681 89.7911C162.932 89.8231 163.217 89.8444 163.537 89.8551C163.857 89.8604 164.185 89.8764 164.521 89.9031C164.857 89.9298 165.185 89.9778 165.505 90.0471C165.825 90.1111 166.11 90.2151 166.361 90.3591C166.612 90.5031 166.812 90.7004 166.961 90.9511C167.116 91.1964 167.193 91.5138 167.193 91.9031C167.193 92.2658 167.102 92.6178 166.921 92.9591C166.745 93.3004 166.486 93.6044 166.145 93.8711C165.809 94.1378 165.393 94.3511 164.897 94.5111C164.406 94.6764 163.846 94.7591 163.217 94.7591C162.598 94.7591 162.06 94.6978 161.601 94.5751C161.142 94.4578 160.761 94.2978 160.457 94.0951C160.153 93.8978 159.926 93.6684 159.777 93.4071C159.628 93.1458 159.553 92.8738 159.553 92.5911C159.553 92.2071 159.668 91.8871 159.897 91.6311C160.132 91.3698 160.452 91.1618 160.857 91.0071C160.638 90.8951 160.465 90.7458 160.337 90.5591C160.209 90.3724 160.145 90.1271 160.145 89.8231C160.145 89.7004 160.166 89.5751 160.209 89.4471C160.257 89.3138 160.324 89.1831 160.409 89.0551C160.5 88.9271 160.612 88.8071 160.745 88.6951C160.878 88.5778 161.036 88.4738 161.217 88.3831C160.801 88.1591 160.473 87.8604 160.233 87.4871C159.998 87.1138 159.881 86.6764 159.881 86.1751C159.881 85.7698 159.961 85.4044 160.121 85.0791C160.286 84.7484 160.513 84.4684 160.801 84.2391C161.094 84.0044 161.438 83.8258 161.833 83.7031C162.233 83.5804 162.668 83.5191 163.137 83.5191C163.489 83.5191 163.82 83.5564 164.129 83.6311C164.438 83.7004 164.721 83.8044 164.977 83.9431H167.337ZM170.59 79.9831V91.8711H168.614V79.9831H170.59ZM174.607 83.6631V91.8711H172.623V83.6631H174.607ZM174.879 81.2711C174.879 81.4418 174.844 81.6018 174.775 81.7511C174.706 81.9004 174.612 82.0311 174.495 82.1431C174.383 82.2551 174.25 82.3458 174.095 82.4151C173.94 82.4791 173.775 82.5111 173.599 82.5111C173.428 82.5111 173.266 82.4791 173.111 82.4151C172.962 82.3458 172.831 82.2551 172.719 82.1431C172.607 82.0311 172.516 81.9004 172.447 81.7511C172.383 81.6018 172.351 81.4418 172.351 81.2711C172.351 81.0951 172.383 80.9298 172.447 80.7751C172.516 80.6204 172.607 80.4871 172.719 80.3751C172.831 80.2631 172.962 80.1751 173.111 80.1111C173.266 80.0418 173.428 80.0071 173.599 80.0071C173.775 80.0071 173.94 80.0418 174.095 80.1111C174.25 80.1751 174.383 80.2631 174.495 80.3751C174.612 80.4871 174.706 80.6204 174.775 80.7751C174.844 80.9298 174.879 81.0951 174.879 81.2711ZM178.47 84.6711C178.635 84.5058 178.808 84.3538 178.99 84.2151C179.176 84.0711 179.371 83.9511 179.574 83.8551C179.782 83.7538 180.003 83.6764 180.238 83.6231C180.472 83.5644 180.728 83.5351 181.006 83.5351C181.454 83.5351 181.851 83.6124 182.198 83.7671C182.544 83.9164 182.832 84.1298 183.062 84.4071C183.296 84.6791 183.472 85.0071 183.59 85.3911C183.712 85.7698 183.774 86.1884 183.774 86.6471V91.8711H181.798V86.6471C181.798 86.1458 181.683 85.7591 181.454 85.4871C181.224 85.2098 180.875 85.0711 180.406 85.0711C180.064 85.0711 179.744 85.1484 179.446 85.3031C179.147 85.4578 178.864 85.6684 178.598 85.9351V91.8711H176.622V83.6631H177.83C178.086 83.6631 178.254 83.7831 178.334 84.0231L178.47 84.6711ZM190.941 86.8231C190.941 86.5671 190.903 86.3271 190.829 86.1031C190.759 85.8738 190.653 85.6738 190.509 85.5031C190.365 85.3324 190.181 85.1991 189.957 85.1031C189.738 85.0018 189.482 84.9511 189.189 84.9511C188.618 84.9511 188.167 85.1138 187.837 85.4391C187.511 85.7644 187.303 86.2258 187.213 86.8231H190.941ZM187.173 88.0151C187.205 88.4364 187.279 88.8018 187.397 89.1111C187.514 89.4151 187.669 89.6684 187.861 89.8711C188.053 90.0684 188.279 90.2178 188.541 90.3191C188.807 90.4151 189.101 90.4631 189.421 90.4631C189.741 90.4631 190.015 90.4258 190.245 90.3511C190.479 90.2764 190.682 90.1938 190.853 90.1031C191.029 90.0124 191.181 89.9298 191.309 89.8551C191.442 89.7804 191.57 89.7431 191.693 89.7431C191.858 89.7431 191.981 89.8044 192.061 89.9271L192.629 90.6471C192.41 90.9031 192.165 91.1191 191.893 91.2951C191.621 91.4658 191.335 91.6044 191.037 91.7111C190.743 91.8124 190.442 91.8844 190.133 91.9271C189.829 91.9698 189.533 91.9911 189.245 91.9911C188.674 91.9911 188.143 91.8978 187.653 91.7111C187.162 91.5191 186.735 91.2391 186.373 90.8711C186.01 90.4978 185.725 90.0391 185.517 89.4951C185.309 88.9458 185.205 88.3111 185.205 87.5911C185.205 87.0311 185.295 86.5058 185.477 86.0151C185.658 85.5191 185.917 85.0898 186.253 84.7271C186.594 84.3591 187.007 84.0684 187.493 83.8551C187.983 83.6418 188.535 83.5351 189.149 83.5351C189.666 83.5351 190.143 83.6178 190.581 83.7831C191.018 83.9484 191.394 84.1911 191.709 84.5111C192.023 84.8258 192.269 85.2151 192.445 85.6791C192.626 86.1378 192.717 86.6631 192.717 87.2551C192.717 87.5538 192.685 87.7564 192.621 87.8631C192.557 87.9644 192.434 88.0151 192.253 88.0151H187.173ZM200.066 84.5431C200.386 84.2444 200.738 84.0018 201.122 83.8151C201.506 83.6284 201.957 83.5351 202.474 83.5351C202.922 83.5351 203.32 83.6124 203.666 83.7671C204.013 83.9164 204.301 84.1298 204.53 84.4071C204.765 84.6791 204.941 85.0071 205.058 85.3911C205.181 85.7698 205.242 86.1884 205.242 86.6471V91.8711H203.266V86.6471C203.266 86.1458 203.152 85.7591 202.922 85.4871C202.693 85.2098 202.344 85.0711 201.874 85.0711C201.533 85.0711 201.213 85.1484 200.914 85.3031C200.616 85.4578 200.333 85.6684 200.066 85.9351V91.8711H198.09V79.9831H200.066V84.5431ZM212.41 86.8231C212.41 86.5671 212.372 86.3271 212.298 86.1031C212.228 85.8738 212.122 85.6738 211.978 85.5031C211.834 85.3324 211.65 85.1991 211.426 85.1031C211.207 85.0018 210.951 84.9511 210.658 84.9511C210.087 84.9511 209.636 85.1138 209.306 85.4391C208.98 85.7644 208.772 86.2258 208.682 86.8231H212.41ZM208.642 88.0151C208.674 88.4364 208.748 88.8018 208.866 89.1111C208.983 89.4151 209.138 89.6684 209.33 89.8711C209.522 90.0684 209.748 90.2178 210.01 90.3191C210.276 90.4151 210.57 90.4631 210.89 90.4631C211.21 90.4631 211.484 90.4258 211.714 90.3511C211.948 90.2764 212.151 90.1938 212.322 90.1031C212.498 90.0124 212.65 89.9298 212.778 89.8551C212.911 89.7804 213.039 89.7431 213.162 89.7431C213.327 89.7431 213.45 89.8044 213.53 89.9271L214.098 90.6471C213.879 90.9031 213.634 91.1191 213.362 91.2951C213.09 91.4658 212.804 91.6044 212.506 91.7111C212.212 91.8124 211.911 91.8844 211.602 91.9271C211.298 91.9698 211.002 91.9911 210.714 91.9911C210.143 91.9911 209.612 91.8978 209.122 91.7111C208.631 91.5191 208.204 91.2391 207.842 90.8711C207.479 90.4978 207.194 90.0391 206.986 89.4951C206.778 88.9458 206.674 88.3111 206.674 87.5911C206.674 87.0311 206.764 86.5058 206.946 86.0151C207.127 85.5191 207.386 85.0898 207.722 84.7271C208.063 84.3591 208.476 84.0684 208.962 83.8551C209.452 83.6418 210.004 83.5351 210.618 83.5351C211.135 83.5351 211.612 83.6178 212.05 83.7831C212.487 83.9484 212.863 84.1911 213.178 84.5111C213.492 84.8258 213.738 85.2151 213.914 85.6791C214.095 86.1378 214.186 86.6631 214.186 87.2551C214.186 87.5538 214.154 87.7564 214.09 87.8631C214.026 87.9644 213.903 88.0151 213.722 88.0151H208.642ZM217.532 85.0871C217.788 84.5964 218.092 84.2124 218.444 83.9351C218.796 83.6524 219.212 83.5111 219.692 83.5111C220.071 83.5111 220.375 83.5938 220.604 83.7591L220.476 85.2391C220.45 85.3351 220.41 85.4044 220.356 85.4471C220.308 85.4844 220.242 85.5031 220.156 85.5031C220.076 85.5031 219.956 85.4898 219.796 85.4631C219.642 85.4364 219.49 85.4231 219.34 85.4231C219.122 85.4231 218.927 85.4551 218.756 85.5191C218.586 85.5831 218.431 85.6764 218.292 85.7991C218.159 85.9164 218.039 86.0604 217.932 86.2311C217.831 86.4018 217.735 86.5964 217.644 86.8151V91.8711H215.668V83.6631H216.828C217.031 83.6631 217.172 83.7004 217.252 83.7751C217.332 83.8444 217.386 83.9724 217.412 84.1591L217.532 85.0871ZM226.691 86.8231C226.691 86.5671 226.653 86.3271 226.579 86.1031C226.509 85.8738 226.403 85.6738 226.259 85.5031C226.115 85.3324 225.931 85.1991 225.707 85.1031C225.488 85.0018 225.232 84.9511 224.939 84.9511C224.368 84.9511 223.917 85.1138 223.587 85.4391C223.261 85.7644 223.053 86.2258 222.963 86.8231H226.691ZM222.923 88.0151C222.955 88.4364 223.029 88.8018 223.147 89.1111C223.264 89.4151 223.419 89.6684 223.611 89.8711C223.803 90.0684 224.029 90.2178 224.291 90.3191C224.557 90.4151 224.851 90.4631 225.171 90.4631C225.491 90.4631 225.765 90.4258 225.995 90.3511C226.229 90.2764 226.432 90.1938 226.603 90.1031C226.779 90.0124 226.931 89.9298 227.059 89.8551C227.192 89.7804 227.32 89.7431 227.443 89.7431C227.608 89.7431 227.731 89.8044 227.811 89.9271L228.379 90.6471C228.16 90.9031 227.915 91.1191 227.643 91.2951C227.371 91.4658 227.085 91.6044 226.787 91.7111C226.493 91.8124 226.192 91.8844 225.883 91.9271C225.579 91.9698 225.283 91.9911 224.995 91.9911C224.424 91.9911 223.893 91.8978 223.403 91.7111C222.912 91.5191 222.485 91.2391 222.123 90.8711C221.76 90.4978 221.475 90.0391 221.267 89.4951C221.059 88.9458 220.955 88.3111 220.955 87.5911C220.955 87.0311 221.045 86.5058 221.227 86.0151C221.408 85.5191 221.667 85.0898 222.003 84.7271C222.344 84.3591 222.757 84.0684 223.243 83.8551C223.733 83.6418 224.285 83.5351 224.899 83.5351C225.416 83.5351 225.893 83.6178 226.331 83.7831C226.768 83.9484 227.144 84.1911 227.459 84.5111C227.773 84.8258 228.019 85.2151 228.195 85.6791C228.376 86.1378 228.467 86.6631 228.467 87.2551C228.467 87.5538 228.435 87.7564 228.371 87.8631C228.307 87.9644 228.184 88.0151 228.003 88.0151H222.923Z" fill="#0EABEB"/>
</svg>
