<svg width="22" height="23" viewBox="0 0 22 23" fill="none" xmlns="http://www.w3.org/2000/svg">
<path d="M0.916992 18.8333V16.2667C0.916992 15.7472 1.05067 15.2698 1.31803 14.8344C1.58539 14.399 1.9406 14.0667 2.38366 13.8375C3.33088 13.3639 4.29338 13.0087 5.27116 12.7719C6.24894 12.5351 7.24199 12.4167 8.25033 12.4167C9.25866 12.4167 10.2517 12.5351 11.2295 12.7719C12.2073 13.0087 13.1698 13.3639 14.117 13.8375C14.56 14.0667 14.9153 14.399 15.1826 14.8344C15.45 15.2698 15.5837 15.7472 15.5837 16.2667V18.8333H0.916992ZM17.417 18.8333V16.0833C17.417 15.4111 17.2298 14.7656 16.8555 14.1469C16.4812 13.5281 15.9503 12.9972 15.2628 12.5542C16.042 12.6458 16.7753 12.8024 17.4628 13.024C18.1503 13.2455 18.792 13.5167 19.3878 13.8375C19.9378 14.1431 20.358 14.483 20.6482 14.8573C20.9385 15.2316 21.0837 15.6403 21.0837 16.0833V18.8333H17.417ZM8.25033 11.5C7.24199 11.5 6.3788 11.141 5.66074 10.4229C4.94269 9.70487 4.58366 8.84167 4.58366 7.83334C4.58366 6.82501 4.94269 5.96181 5.66074 5.24376C6.3788 4.5257 7.24199 4.16667 8.25033 4.16667C9.25866 4.16667 10.1219 4.5257 10.8399 5.24376C11.558 5.96181 11.917 6.82501 11.917 7.83334C11.917 8.84167 11.558 9.70487 10.8399 10.4229C10.1219 11.141 9.25866 11.5 8.25033 11.5ZM17.417 7.83334C17.417 8.84167 17.058 9.70487 16.3399 10.4229C15.6219 11.141 14.7587 11.5 13.7503 11.5C13.5823 11.5 13.3684 11.4809 13.1087 11.4427C12.8489 11.4045 12.635 11.3625 12.467 11.3167C12.8795 10.8278 13.1965 10.2854 13.418 9.68959C13.6396 9.09376 13.7503 8.47501 13.7503 7.83334C13.7503 7.19167 13.6396 6.57292 13.418 5.97709C13.1965 5.38126 12.8795 4.83889 12.467 4.35001C12.6809 4.27362 12.8948 4.22396 13.1087 4.20105C13.3225 4.17813 13.5364 4.16667 13.7503 4.16667C14.7587 4.16667 15.6219 4.5257 16.3399 5.24376C17.058 5.96181 17.417 6.82501 17.417 7.83334Z" fill="#818194"/>
</svg>
