<svg width="960" height="1069" viewBox="0 0 960 1069" fill="none" xmlns="http://www.w3.org/2000/svg">
<g clip-path="url(#clip0_1_11)">
<rect y="1" width="960" height="1064" fill="#F6F8FB"/>
<path opacity="0.2" d="M858.78 -70.978C855.232 -70.8662 852.454 -67.9071 852.566 -64.3598C852.678 -60.8124 855.637 -58.0342 859.184 -58.146C862.732 -58.2578 865.51 -61.2169 865.398 -64.7642C865.286 -68.3116 862.327 -71.0898 858.78 -70.978ZM897.152 -72.1876C893.605 -72.0758 890.827 -69.1167 890.939 -65.5693C891.051 -62.022 894.01 -59.2438 897.557 -59.3556C901.104 -59.4674 903.883 -62.4265 903.771 -65.9738C903.659 -69.5211 900.7 -72.2994 897.152 -72.1876ZM935.525 -73.3971C931.978 -73.2853 929.2 -70.3262 929.311 -66.7789C929.423 -63.2316 932.383 -60.4533 935.93 -60.5651C939.477 -60.6769 942.255 -63.6361 942.143 -67.1834C942.032 -70.7307 939.072 -73.509 935.525 -73.3971ZM973.898 -74.6067C970.35 -74.4949 967.572 -71.5358 967.684 -67.9885C967.796 -64.4411 970.755 -61.6629 974.303 -61.7747C977.85 -61.8865 980.628 -64.8456 980.516 -68.3929C980.389 -71.9243 977.43 -74.7026 973.898 -74.6067ZM859.99 -32.6053C856.443 -32.4935 853.665 -29.5344 853.777 -25.9871C853.888 -22.4398 856.848 -19.6615 860.395 -19.7733C863.942 -19.8851 866.72 -22.8443 866.609 -26.3916C866.497 -29.9389 863.537 -32.7172 859.99 -32.6053ZM898.363 -33.8149C894.816 -33.7031 892.037 -30.744 892.149 -27.1966C892.261 -23.6493 895.22 -20.8711 898.768 -20.9829C902.315 -21.0947 905.093 -24.0538 904.981 -27.6011C904.869 -31.1484 901.91 -33.9267 898.363 -33.8149ZM936.736 -35.0245C933.188 -34.9126 930.41 -31.9535 930.522 -28.4062C930.634 -24.8589 933.593 -22.0806 937.14 -22.1925C940.688 -22.3043 943.466 -25.2634 943.354 -28.8107C943.242 -32.358 940.283 -35.1363 936.736 -35.0245ZM975.108 -36.234C971.561 -36.1222 968.783 -33.1631 968.895 -29.6158C969.007 -26.0685 971.966 -23.2902 975.513 -23.402C979.06 -23.5138 981.839 -26.4729 981.727 -30.0203C981.615 -33.5676 978.656 -36.3458 975.108 -36.234ZM822.828 6.97689C819.281 7.0887 816.502 10.0478 816.614 13.5951C816.726 17.1425 819.685 19.9207 823.233 19.8089C826.78 19.6971 829.558 16.738 829.446 13.1907C829.334 9.64335 826.375 6.86507 822.828 6.97689ZM861.201 5.76732C857.653 5.87914 854.875 8.83827 854.987 12.3856C855.099 15.9329 858.058 18.7112 861.605 18.5994C865.153 18.4875 867.931 15.5284 867.819 11.9811C867.707 8.43378 864.748 5.6555 861.201 5.76732ZM899.573 4.55777C896.026 4.66959 893.248 7.62871 893.36 11.176C893.472 14.7233 896.431 17.5016 899.978 17.3898C903.525 17.278 906.304 14.3189 906.192 10.7715C906.08 7.22423 903.121 4.44596 899.573 4.55777ZM937.946 3.34822C934.399 3.46004 931.621 6.41916 931.732 9.96647C931.844 13.5138 934.804 16.2921 938.351 16.1802C941.898 16.0684 944.676 13.1093 944.564 9.56199C944.453 6.01468 941.493 3.2364 937.946 3.34822ZM976.319 2.13866C972.771 2.25048 969.993 5.20958 970.105 8.75689C970.217 12.3042 973.176 15.0825 976.724 14.9706C980.271 14.8588 983.049 11.8997 982.937 8.35241C982.825 4.8051 979.85 2.01191 976.319 2.13866ZM824.038 45.3496C820.491 45.4614 817.713 48.4205 817.825 51.9678C817.937 55.5151 820.896 58.2934 824.443 58.1816C827.991 58.0698 830.769 55.1107 830.657 51.5633C830.545 48.016 827.586 45.2377 824.038 45.3496ZM862.411 44.14C858.864 44.2518 856.086 47.2109 856.197 50.7583C856.309 54.3056 859.269 57.0838 862.816 56.972C866.363 56.8602 869.141 53.9011 869.03 50.3538C868.918 46.8065 865.958 44.0282 862.411 44.14ZM900.784 42.9304C897.236 43.0423 894.458 46.0014 894.57 49.5487C894.682 53.096 897.641 55.8743 901.189 55.7625C904.736 55.6507 907.514 52.6915 907.402 49.1442C907.29 45.5969 904.331 42.8186 900.784 42.9304ZM939.157 41.7209C935.609 41.8327 932.831 44.7918 932.943 48.3391C933.055 51.8865 936.014 54.6647 939.561 54.5529C943.109 54.4411 945.887 51.482 945.775 47.9346C945.663 44.3873 942.688 41.5941 939.157 41.7209ZM977.529 40.5113C973.982 40.6232 971.204 43.5823 971.316 47.1296C971.427 50.6769 974.387 53.4552 977.934 53.3433C981.481 53.2315 984.259 50.2724 984.148 46.7251C984.036 43.1778 981.061 40.3846 977.529 40.5113ZM825.249 83.7222C821.702 83.8341 818.923 86.7932 819.035 90.3405C819.147 93.8878 822.106 96.6661 825.654 96.5543C829.201 96.4424 831.979 93.4833 831.867 89.936C831.755 86.3887 828.796 83.6104 825.249 83.7222ZM863.622 82.5127C860.074 82.6245 857.296 85.5836 857.408 89.1309C857.52 92.6782 860.479 95.4565 864.026 95.3447C867.574 95.2329 870.352 92.2738 870.24 88.7265C870.128 85.1791 867.169 82.4009 863.622 82.5127ZM901.994 81.3031C898.447 81.4149 895.669 84.3741 895.781 87.9214C895.893 91.4687 898.852 94.2469 902.399 94.1351C905.946 94.0233 908.725 91.0642 908.613 87.5169C908.501 83.9696 905.526 81.1764 901.994 81.3031ZM940.367 80.0936C936.82 80.2054 934.041 83.1645 934.153 86.7118C934.265 90.2591 937.224 93.0374 940.772 92.9256C944.319 92.8138 947.097 89.8546 946.985 86.3073C946.873 82.76 943.898 79.9668 940.367 80.0936ZM978.724 78.8691C975.176 78.9809 972.398 81.94 972.51 85.4873C972.622 89.0346 975.581 91.8129 979.129 91.7011C982.676 91.5893 985.454 88.6301 985.342 85.0828C985.246 81.5505 982.271 78.7572 978.724 78.8691Z" fill="#A7A7A7"/>
</g>
<path opacity="0.5" d="M685 1012.46V1065.03V1068.32H960V791H905.525V848.173H851.05V902.06H797.888V957.261H738.819V1012.46H685Z" fill="#5678E9"/>
<path opacity="0.5" d="M275 56.5378V3.96512V0.679321H0V278H54.4749V220.827H108.95V166.94H162.112V111.739H221.181V56.5378H275Z" fill="#5678E9"/>
<defs>
<clipPath id="clip0_1_11">
<rect width="960" height="1064" fill="white" transform="translate(0 1)"/>
</clipPath>
</defs>
</svg>
